<svg width="57" height="61" viewBox="0 0 57 61" fill="none" xmlns="http://www.w3.org/2000/svg">
<path d="M12.3281 0.616577C12.5728 0.616617 12.8085 0.70206 12.9961 0.855835L13.0732 0.925171C13.271 1.12293 13.3828 1.39159 13.3828 1.67126V7.88025L13.377 7.98474C13.3563 8.19146 13.2752 8.38751 13.1436 8.54822L13.0732 8.62537C12.8755 8.82308 12.6077 8.93481 12.3281 8.93494L12.2236 8.92908C12.0169 8.90847 11.8209 8.82734 11.6602 8.69568L11.582 8.62537C11.3845 8.42767 11.2735 8.15971 11.2734 7.88025V1.67126C11.2734 1.42633 11.3587 1.19005 11.5127 1.00232L11.582 0.925171C11.7551 0.752147 11.9823 0.645442 12.2236 0.62146L12.3281 0.616577Z" fill="white" stroke="#18A0FB"/>
<path d="M28.4844 0.616577C28.5881 0.616594 28.6911 0.631541 28.79 0.661499L28.8877 0.696655C28.9837 0.736422 29.0733 0.790148 29.1533 0.855835L29.2295 0.925171C29.303 0.998665 29.3653 1.08285 29.4141 1.17419L29.458 1.26794C29.511 1.39583 29.5391 1.53285 29.5391 1.67126V7.88025L29.5332 7.98474C29.5126 8.19146 29.4315 8.38751 29.2998 8.54822L29.2295 8.62537C29.0318 8.82308 28.764 8.93481 28.4844 8.93494L28.3799 8.92908C28.1731 8.90847 27.9772 8.82734 27.8164 8.69568L27.7383 8.62537C27.5408 8.42767 27.4298 8.15971 27.4297 7.88025V1.67126L27.4346 1.56775C27.4413 1.49893 27.4545 1.4308 27.4746 1.36462L27.5098 1.26794C27.5495 1.17202 27.6033 1.0823 27.6689 1.00232L27.7383 0.925171C27.8117 0.851714 27.896 0.790375 27.9873 0.741577L28.0811 0.696655C28.2089 0.643771 28.346 0.616577 28.4844 0.616577Z" fill="white" stroke="#18A0FB"/>
<path d="M44.666 0.616699C44.7697 0.616726 44.8728 0.631651 44.9717 0.661621L45.0693 0.696777C45.1654 0.736558 45.2549 0.790235 45.335 0.855957L45.4111 0.925293C45.4847 0.998814 45.5469 1.08294 45.5957 1.17432L45.6396 1.26807C45.6926 1.3959 45.7197 1.53303 45.7197 1.67139V7.88037L45.7148 7.98389C45.6943 8.19091 45.6133 8.38741 45.4814 8.54834L45.4111 8.62549C45.2135 8.82321 44.9456 8.93488 44.666 8.93506L44.5615 8.9292C44.3548 8.90859 44.1588 8.82744 43.998 8.6958L43.9199 8.62549C43.7224 8.42781 43.6114 8.15981 43.6113 7.88037V1.67139L43.6162 1.56787C43.623 1.49905 43.6362 1.43092 43.6562 1.36475L43.6914 1.26807C43.7444 1.14014 43.822 1.0232 43.9199 0.925293C43.9934 0.851835 44.0777 0.790496 44.1689 0.741699L44.2627 0.696777C44.3586 0.657112 44.4596 0.631704 44.5625 0.621582L44.666 0.616699Z" fill="white" stroke="#18A0FB"/>
<path d="M17.4385 23.3037V38.4355H1.32422V23.3037H17.4385ZM12.792 25.5908C12.6078 25.5978 12.4256 25.6315 12.252 25.6914L12.0811 25.7598C11.9138 25.8366 11.7594 25.938 11.6221 26.0596L11.4902 26.1885L9.70215 28.1162L7.91504 26.1885C7.61982 25.87 7.22431 25.6652 6.79785 25.6064L6.61328 25.5908C6.17936 25.5744 5.75518 25.7088 5.41211 25.9688L5.27051 26.0879C4.95201 26.3831 4.7472 26.7786 4.68848 27.2051L4.67285 27.3896C4.65643 27.8236 4.79078 28.2478 5.05078 28.5908L5.16992 28.7324L7.15039 30.8691L5.16992 33.0068C4.87471 33.3253 4.7011 33.7354 4.6748 34.165L4.67285 34.3506C4.68937 34.7844 4.85547 35.1972 5.14062 35.5195L5.27051 35.6523C5.58907 35.9475 5.99898 36.1213 6.42871 36.1475L6.61328 36.1494C7.04724 36.133 7.4598 35.9659 7.78223 35.6807L7.91504 35.5518L9.70215 33.623L11.4902 35.5518C11.7855 35.8702 12.181 36.0742 12.6074 36.1328L12.792 36.1494C13.2259 36.1657 13.6502 36.0307 13.9932 35.7705L14.1348 35.6514C14.4532 35.3561 14.6572 34.9606 14.7158 34.5342L14.7324 34.3496C14.7487 33.916 14.6133 33.4923 14.3535 33.1494L14.2344 33.0068L12.2539 30.8691L14.2344 28.7324C14.3598 28.5972 14.4645 28.4445 14.5449 28.2793L14.6172 28.1104C14.7025 27.8801 14.7417 27.635 14.7324 27.3896C14.7255 27.2056 14.6907 27.0241 14.6309 26.8506L14.5625 26.6797C14.4856 26.5121 14.3845 26.3572 14.2627 26.2197L14.1348 26.0879C13.9546 25.9209 13.743 25.7914 13.5127 25.7061C13.3399 25.642 13.1589 25.6039 12.9756 25.5928L12.792 25.5908Z" fill="white" stroke="#18A0FB"/>
<path d="M56.0547 23.3037V38.4355H39.9414V23.3037H56.0547Z" fill="white" stroke="#18A0FB"/>
<path d="M36.1846 42.1793V60.0319H21.1758V42.1793H36.1846Z" fill="white" stroke="#18A0FB"/>
<path d="M5.41895 4.43933H7.72656V7.87976C7.72656 9.02173 8.15129 10.1202 8.91406 10.9628L9.07129 11.1278C9.93265 11.9892 11.1012 12.4734 12.3193 12.4735C13.4616 12.4735 14.5606 12.0482 15.4033 11.285L15.5684 11.1278C16.4296 10.2664 16.9131 9.09788 16.9131 7.87976V4.43933H23.8994V7.87976C23.8994 8.4075 23.9906 8.93077 24.168 9.42664L24.249 9.63757C24.451 10.1253 24.7351 10.5744 25.0889 10.9647L25.2451 11.1278C25.6717 11.5543 26.178 11.8931 26.7354 12.1239C27.2926 12.3547 27.89 12.4735 28.4932 12.4735C29.0209 12.4735 29.5441 12.3823 30.04 12.205L30.251 12.1239C30.7385 11.922 31.1869 11.6376 31.5771 11.2841L31.7412 11.1278C32.1143 10.7546 32.4203 10.3206 32.6455 9.8446L32.7363 9.63757C32.9672 9.08027 33.0869 8.48298 33.0869 7.87976V4.43933H40.0732V7.87976C40.0732 9.02174 40.4979 10.1202 41.2607 10.9628L41.418 11.1278C42.2793 11.9892 43.4479 12.4734 44.666 12.4735C45.8081 12.4735 46.9064 12.0479 47.749 11.285L47.9141 11.1278C48.7755 10.2664 49.2598 9.09803 49.2598 7.87976V4.43933H51.9492C52.4197 4.43937 52.8861 4.52046 53.3281 4.67859L53.5156 4.75085C53.9503 4.9309 54.3503 5.18466 54.6982 5.49988L54.8447 5.63855C55.1774 5.97125 55.4496 6.35869 55.6504 6.78308L55.7324 6.96765C55.938 7.46426 56.0439 7.99656 56.0439 8.53406V19.5634H1.32422V8.53406L1.3291 8.33289C1.3489 7.93093 1.42793 7.53408 1.56348 7.15515L1.63574 6.96765C1.81577 6.533 2.06956 6.13293 2.38477 5.78503L2.52344 5.63855C2.85613 5.30585 3.24357 5.03368 3.66797 4.83289L3.85254 4.75085C4.28712 4.5709 4.74898 4.4673 5.21777 4.44421L5.41895 4.43933Z" fill="white" stroke="#18A0FB"/>
<path d="M36.1846 23.3037V38.4355H21.1758V23.3037H36.1846Z" fill="white" stroke="#18A0FB"/>
<path d="M17.4385 42.1764V60.0289H5.41895L5.21777 60.024C4.81581 60.0043 4.41898 59.9252 4.04004 59.7897L3.85254 59.7174C3.41787 59.5374 3.01783 59.2836 2.66992 58.9684L2.52344 58.8297C2.19074 58.497 1.91856 58.1096 1.71777 57.6852L1.63574 57.5006C1.43011 57.004 1.32424 56.4717 1.32422 55.9342V42.1764H17.4385Z" fill="white" stroke="#18A0FB"/>
<path d="M56.0547 42.1793V55.9371L56.0498 56.1383C56.03 56.5403 55.951 56.9371 55.8154 57.316L55.7432 57.5035C55.5631 57.9382 55.3094 58.3382 54.9941 58.6862L54.8555 58.8326C54.5228 59.1653 54.1354 59.4375 53.7109 59.6383L53.5273 59.7203C53.0305 59.9261 52.4977 60.0319 51.96 60.0319H39.9414V42.1793H56.0547ZM51.0225 46.0094C50.5886 46.0258 50.1759 46.1921 49.8535 46.4772L49.7207 46.6071L47.9326 48.5348L46.1445 46.6071C45.8071 46.2432 45.3387 46.0281 44.8428 46.0094C44.3469 45.9907 43.8639 46.17 43.5 46.5074C43.1363 46.8448 42.9212 47.3125 42.9023 47.8082C42.8836 48.3042 43.063 48.7881 43.4004 49.152V49.151L45.3809 51.2887L43.4004 53.4264C43.1053 53.7447 42.9317 54.1541 42.9053 54.5836L42.9023 54.7692C42.9187 55.2031 43.0859 55.6157 43.3711 55.9381L43.5 56.0709C43.8185 56.3662 44.2285 56.5397 44.6582 56.566L44.8428 56.568C45.0883 56.5587 45.3304 56.5016 45.5537 56.399C45.721 56.3222 45.8754 56.2208 46.0127 56.0992L46.1445 55.9703L47.9326 54.0416L49.7207 55.9703C50.0159 56.2887 50.4115 56.4927 50.8379 56.5514L51.0225 56.568C51.4564 56.5844 51.8806 56.4492 52.2236 56.1891L52.3652 56.0699C52.6837 55.7747 52.8877 55.3793 52.9463 54.9528L52.9629 54.7682C52.9792 54.3345 52.8439 53.9109 52.584 53.568L52.4648 53.4254L50.4834 51.2877L52.4639 49.151L52.4648 49.152C52.5901 49.0169 52.695 48.8639 52.7754 48.6989L52.8477 48.5299C52.9331 48.2995 52.9722 48.0538 52.9629 47.8082C52.9536 47.5628 52.8964 47.3215 52.7939 47.0983C52.6914 46.875 52.5454 46.6745 52.3652 46.5074C52.23 46.3821 52.0773 46.2773 51.9121 46.1969L51.7432 46.1246C51.5703 46.0606 51.3894 46.0225 51.2061 46.0114L51.0225 46.0094Z" fill="white" stroke="#18A0FB"/>
</svg>
