<svg width="65" height="65" viewBox="0 0 65 65" fill="none" xmlns="http://www.w3.org/2000/svg">
<path fill-rule="evenodd" clip-rule="evenodd" d="M41.4894 34.5987C33.074 34.5987 26.2578 26.8572 26.2578 17.3426C26.2578 7.7847 33.074 0 41.4894 0C49.8668 0 56.6449 7.74145 56.6449 17.2561C56.6449 26.814 49.8668 34.5987 41.4894 34.5987ZM41.4894 2.07592C34.1021 2.07592 28.1237 8.90916 28.1237 17.2561C28.1237 25.6463 34.1402 32.4362 41.4894 32.4362C48.8387 32.4362 54.779 25.603 54.779 17.2561C54.8551 8.90916 48.8767 2.07592 41.4894 2.07592Z" fill="#18A0FB"/>
<path fill-rule="evenodd" clip-rule="evenodd" d="M52.6039 28.4135C52.3373 28.4135 52.0708 28.2837 51.8804 28.0242C49.3291 24.3914 45.5592 22.3155 41.4848 22.3155C37.4103 22.3155 33.5644 24.3914 31.0131 28.0242C30.7084 28.5 30.1373 28.5432 29.6803 28.1972C29.2614 27.808 29.2234 27.1593 29.528 26.6835C32.4601 22.5317 36.763 20.1963 41.4086 20.1963C46.0543 20.1963 50.3572 22.5317 53.2893 26.6835C53.632 27.1593 53.5558 27.808 53.137 28.1972C53.0227 28.3702 52.8323 28.4135 52.6039 28.4135Z" fill="#18A0FB"/>
<path fill-rule="evenodd" clip-rule="evenodd" d="M41.5111 18.3383C38.236 18.3383 35.5703 15.3542 35.5703 11.6781C35.5703 7.95874 38.236 4.97461 41.5111 4.97461C44.71 4.97461 47.3757 7.95874 47.3757 11.6781C47.3757 15.3542 44.7861 18.3383 41.5111 18.3383ZM41.5111 7.05053C39.2643 7.05053 37.4363 9.12645 37.4363 11.6781C37.4363 14.2298 39.2262 16.2624 41.5111 16.2624C43.7198 16.2624 45.5097 14.2298 45.5097 11.6781C45.5097 9.1697 43.7198 7.05053 41.5111 7.05053Z" fill="#18A0FB"/>
<path fill-rule="evenodd" clip-rule="evenodd" d="M11.734 63.1829C11.3532 63.1829 10.9724 62.9666 10.8582 62.5341C10.7058 61.9719 10.9343 61.4097 11.3913 61.1502C17.9028 58.3823 21.368 59.1175 25.1378 59.8527C31.1543 61.0205 38.0085 62.4044 61.6936 46.2728C63.3691 45.0618 63.3691 43.1589 62.6075 41.7317C61.884 40.3477 60.3609 39.4395 58.6473 40.564C57.0099 41.7317 55.5629 42.7264 54.0778 43.8076C43.4919 51.3328 37.1327 55.8307 22.0534 47.7865C21.5964 47.527 21.368 46.8782 21.6345 46.4025C21.863 45.8403 22.4342 45.624 22.853 45.9268C28.3364 48.8677 32.5632 50.0354 36.333 49.9489C36.4472 49.9489 36.4853 49.8624 36.5996 49.8624C37.6277 49.8624 38.275 48.8677 38.3893 47.9595C38.4274 47.527 38.5035 46.143 37.0565 45.6673L26.5086 42.0777C21.6345 40.4775 19.2736 41.8182 15.2372 44.1104C14.2472 44.7158 13.1429 45.3213 11.8863 45.97C11.3913 46.2295 10.8582 45.97 10.6678 45.4511C10.4393 44.8888 10.6678 44.2833 11.1247 44.0671C12.3432 43.4184 13.4094 42.8129 14.4757 42.2074C18.5882 39.872 21.5203 38.0988 27.0798 40.045L37.6277 43.6346C39.7601 44.3698 40.4836 46.4458 40.2932 48.2622C40.2171 48.6947 40.1409 49.0407 39.9886 49.4731C44.2915 48.3919 48.2137 45.624 53.1639 42.0344C54.649 40.9965 56.1341 39.9153 57.7715 38.7908C60.3989 36.9744 63.0645 38.3583 64.2449 40.6505C65.4634 42.9859 65.3873 46.2728 62.6837 48.0892C38.3893 64.5668 31.1923 63.1396 24.7951 61.8854C21.3299 61.1502 18.0551 60.5447 12.0386 63.0531C11.9244 63.1396 11.8101 63.1829 11.734 63.1829Z" fill="#18A0FB"/>
<path fill-rule="evenodd" clip-rule="evenodd" d="M2.74189 65.0001C1.37095 65.0001 0.266573 63.7892 0.266573 62.2322L0 45.1924C0 43.6354 1.02821 42.4245 2.36107 42.3812L9.8632 42.2083C11.2341 42.2083 12.3385 43.4192 12.3385 44.9761L12.6051 62.0592C12.6051 63.6162 11.5388 64.8704 10.1679 64.8704L2.74189 65.0001ZM9.90128 44.3707L2.39916 44.5437C2.0945 44.5437 1.82793 44.8464 1.82793 45.1924L2.0945 62.2755C2.0945 62.6647 2.36107 62.9675 2.66573 62.9675L10.1679 62.7945C10.5106 62.7945 10.7772 62.4917 10.7772 62.1025L10.5106 45.0194C10.5106 44.6734 10.244 44.3707 9.90128 44.3707Z" fill="#18A0FB"/>
<path fill-rule="evenodd" clip-rule="evenodd" d="M6.15621 52.931C5.47073 52.931 4.78526 52.6283 4.21403 52.0228C3.60472 51.4173 3.30007 50.5956 3.30007 49.6874C3.26199 48.8657 3.56664 48.0007 4.09979 47.352C4.63293 46.7032 5.35649 46.4005 6.15621 46.3572C7.75564 46.2708 9.05043 47.6979 9.12659 49.5576C9.12659 51.4173 7.79373 52.931 6.19429 52.931C6.19429 52.931 6.19429 52.931 6.15621 52.931ZM6.30853 48.4332H6.27045C6.00388 48.4332 5.73731 48.5629 5.50882 48.7792C5.31841 49.0386 5.20416 49.3414 5.24224 49.6441C5.24224 49.9901 5.35649 50.2928 5.58498 50.5523C5.77539 50.7686 6.00388 50.8983 6.27045 50.8551C6.87976 50.8551 7.37483 50.2928 7.37483 49.5576C7.29866 48.9954 6.84168 48.4332 6.30853 48.4332Z" fill="#18A0FB"/>
</svg>
