<svg width="25" height="24" viewBox="0 0 25 24" fill="none" xmlns="http://www.w3.org/2000/svg">
<g clip-path="url(#clip0_2_12)">
<path d="M7.49996 18C6.25223 18 5.05561 17.5259 4.17334 16.682C3.29107 15.8381 2.79541 14.6935 2.79541 13.5C2.79541 12.3065 3.29107 11.1619 4.17334 10.318C5.05561 9.47412 6.25223 9.00001 7.49996 9.00001C7.79464 7.68719 8.65672 6.5335 9.89654 5.79273C10.5104 5.42594 11.1986 5.17156 11.9217 5.04412C12.6449 4.91669 13.3888 4.91869 14.1111 5.05001C14.8333 5.18133 15.5198 5.43941 16.1312 5.80949C16.7427 6.17958 17.2672 6.65443 17.6747 7.20694C18.0823 7.75945 18.3649 8.37879 18.5065 9.02961C18.6481 9.68043 18.6459 10.35 18.5 11H19.5C20.4282 11 21.3185 11.3688 21.9748 12.0251C22.6312 12.6815 23 13.5718 23 14.5C23 15.4283 22.6312 16.3185 21.9748 16.9749C21.3185 17.6313 20.4282 18 19.5 18H18.5" stroke="#9A9C9E" stroke-width="2" stroke-linecap="round" stroke-linejoin="round"/>
<path d="M9.5 15L12.5 12L15.5 15" stroke="#9A9C9E" stroke-width="2" stroke-linecap="round" stroke-linejoin="round"/>
<path d="M12.5 12V21" stroke="#9A9C9E" stroke-width="2" stroke-linecap="round" stroke-linejoin="round"/>
</g>
<defs>
<clipPath id="clip0_2_12">
<rect width="24" height="24" fill="white" transform="translate(0.5)"/>
</clipPath>
</defs>
</svg>
