<svg width="20" height="21" viewBox="0 0 20 21" fill="none" xmlns="http://www.w3.org/2000/svg">
<path d="M14.8108 15.4688C15.2597 15.131 15.7287 14.662 16.6667 13.724C17.1357 13.255 17.3702 13.0204 17.5391 12.796C18.6112 11.3716 18.6112 9.40963 17.5391 7.98521C17.3702 7.7608 17.1357 7.5263 16.6667 7.0573L16.6667 7.05729C15.7287 6.11928 15.2597 5.65027 14.8108 5.31247C11.962 3.16829 8.03801 3.16829 5.18916 5.31247C4.74035 5.65027 4.27134 6.11928 3.33333 7.05729C2.86433 7.5263 2.62982 7.7608 2.46092 7.98521C1.38883 9.40963 1.38883 11.3716 2.46092 12.796C2.62982 13.0204 2.86433 13.255 3.33333 13.724L3.33334 13.724C4.27135 14.662 4.74035 15.131 5.18916 15.4688C8.03801 17.613 11.962 17.613 14.8108 15.4688Z" stroke="#B2BCC9" stroke-width="1.5" stroke-linecap="round" stroke-linejoin="round"/>
<rect x="7" y="7.39062" width="6" height="6" rx="2.5" stroke="#B2BCC9" stroke-width="1.5" stroke-linecap="round" stroke-linejoin="round"/>
</svg>
