<svg width="65" height="65" viewBox="0 0 65 65" fill="none" xmlns="http://www.w3.org/2000/svg">
<path d="M36.6945 43.3052C38.4577 42.0103 39.6094 39.9283 39.6094 37.5781C39.6094 33.6588 36.4203 30.4688 32.5 30.4688C28.5797 30.4688 25.3906 33.6588 25.3906 37.5781C25.3906 37.5812 25.3906 37.5832 25.3906 37.5862V37.5883C25.3937 39.9344 26.5444 42.0123 28.3045 43.3052C25.4008 44.5453 23.3594 47.4287 23.3594 50.7812V61.9531C23.3594 62.5148 23.8144 62.9688 24.375 62.9688H40.625C41.1856 62.9688 41.6406 62.5148 41.6406 61.9531V50.7812C41.6406 47.4287 39.5992 44.5453 36.6945 43.3052ZM32.5 45.9428L34.4277 49.7981L32.5 54.2963L30.5723 49.7981L32.5 45.9428ZM32.5 32.5C34.579 32.5 36.3655 33.7584 37.1495 35.5509C35.7002 34.8847 34.127 34.5312 32.5 34.5312C30.873 34.5312 29.2998 34.8847 27.8505 35.5509C28.6345 33.7584 30.421 32.5 32.5 32.5ZM27.4727 38.0768C28.9707 37.0876 30.6952 36.5625 32.5 36.5625C34.3048 36.5625 36.0293 37.0876 37.5273 38.0768C37.2734 40.6402 35.1295 42.6562 32.5 42.6562C29.8705 42.6562 27.7266 40.6402 27.4727 38.0768ZM39.6094 60.9375H25.3906V50.7812C25.3906 47.6389 27.7814 45.046 30.8395 44.722L28.5452 49.3106C28.4121 49.5777 28.402 49.8905 28.5208 50.1648L31.5677 57.2741C31.7261 57.6489 32.0938 57.8906 32.5 57.8906C32.9062 57.8906 33.2739 57.6489 33.4334 57.2752L36.4802 50.1658C36.598 49.8916 36.5889 49.5788 36.4559 49.3116L34.1616 44.723C37.2186 45.046 39.6094 47.6389 39.6094 50.7812V60.9375Z" fill="#18A0FB"/>
<path d="M14.0542 41.2415C15.3948 40.1223 16.25 38.4414 16.25 36.5625C16.25 33.2018 13.517 30.4688 10.1562 30.4688C6.79555 30.4688 4.0625 33.2018 4.0625 36.5625C4.0625 38.4414 4.91766 40.1223 6.25828 41.2415C3.77203 42.3495 2.03125 44.8409 2.03125 47.7344V57.8906C2.03125 58.4523 2.48625 58.9062 3.04688 58.9062H17.2656C17.8263 58.9062 18.2812 58.4523 18.2812 57.8906V47.7344C18.2812 44.8409 16.5405 42.3495 14.0542 41.2415ZM10.1562 44.3747L11.1069 46.7502L10.1562 49.6011L9.20563 46.7502L10.1562 44.3747ZM10.1562 40.625C8.00922 40.625 6.26437 38.9462 6.12117 36.8347C7.31758 36.0049 8.6968 35.5469 10.1562 35.5469C11.6157 35.5469 12.9949 36.0049 14.1913 36.8347C14.0481 38.9462 12.3033 40.625 10.1562 40.625ZM10.1562 32.5C11.4674 32.5 12.6242 33.1348 13.3666 34.1027C12.35 33.7187 11.2704 33.5156 10.1562 33.5156C9.04211 33.5156 7.9625 33.7187 6.94586 34.1027C7.68828 33.1348 8.84508 32.5 10.1562 32.5ZM16.25 56.875H4.0625V47.7344C4.0625 45.107 6.07547 42.965 8.63586 42.707L7.1825 46.342C7.09414 46.5654 7.08602 46.8122 7.16219 47.0407L9.19344 53.1345C9.33156 53.5488 9.71852 53.8281 10.1562 53.8281C10.594 53.8281 10.9809 53.5488 11.1201 53.1334L13.1513 47.0397C13.2275 46.8112 13.2194 46.5644 13.131 46.3409L11.6777 42.706C14.237 42.965 16.25 45.107 16.25 47.7344V56.875Z" fill="#18A0FB"/>
<path d="M58.7417 41.2415C60.0823 40.1223 60.9375 38.4414 60.9375 36.5625C60.9375 33.2018 58.2045 30.4688 54.8438 30.4688C51.483 30.4688 48.75 33.2018 48.75 36.5625C48.75 38.4414 49.6052 40.1223 50.9458 41.2415C48.4595 42.3495 46.7188 44.8409 46.7188 47.7344V57.8906C46.7188 58.4523 47.1738 58.9062 47.7344 58.9062H61.9531C62.5138 58.9062 62.9688 58.4523 62.9688 57.8906V47.7344C62.9688 44.8409 61.228 42.3495 58.7417 41.2415ZM54.8438 44.3747L55.7944 46.7502L54.8438 49.6011L53.8931 46.7502L54.8438 44.3747ZM54.8438 40.625C52.6967 40.625 50.9519 38.9462 50.8087 36.8347C52.0051 36.0049 53.3843 35.5469 54.8438 35.5469C56.3032 35.5469 57.6824 36.0049 58.8788 36.8347C58.7356 38.9462 56.9908 40.625 54.8438 40.625ZM54.8438 32.5C56.1549 32.5 57.3117 33.1348 58.0541 34.1027C57.0375 33.7187 55.9579 33.5156 54.8438 33.5156C53.7296 33.5156 52.65 33.7187 51.6334 34.1027C52.3758 33.1348 53.5326 32.5 54.8438 32.5ZM60.9375 56.875H48.75V47.7344C48.75 45.107 50.763 42.965 53.3234 42.707L51.87 46.342C51.7816 46.5654 51.7735 46.8122 51.8497 47.0407L53.8809 53.1345C54.0191 53.5488 54.406 53.8281 54.8438 53.8281C55.2815 53.8281 55.6684 53.5488 55.8076 53.1334L57.8388 47.0397C57.915 46.8112 57.9069 46.5644 57.8185 46.3409L56.3652 42.706C58.9245 42.965 60.9375 45.107 60.9375 47.7344V56.875Z" fill="#18A0FB"/>
<path d="M24.4275 12.218C24.3067 12.5785 24.3981 12.9766 24.6632 13.2498L27.8593 16.5262L27.1027 21.1646C27.0397 21.5485 27.2022 21.9345 27.5201 22.1589C27.839 22.3834 28.2575 22.4057 28.5967 22.2178L32.4997 20.0596L36.4018 22.2168C36.5561 22.3021 36.7247 22.3438 36.8933 22.3438C37.0985 22.3438 37.3036 22.2808 37.4783 22.1579C37.7962 21.9334 37.9587 21.5475 37.8957 21.1636L37.1391 16.5252L40.3353 13.2488C40.6014 12.9756 40.6928 12.5785 40.5709 12.217C40.449 11.8554 40.1372 11.5934 39.7614 11.5355L35.3861 10.8672L33.4189 6.67773C33.2523 6.32125 32.8938 6.09375 32.4997 6.09375C32.1057 6.09375 31.7471 6.32125 31.5806 6.67773L29.6133 10.8672L25.237 11.5365C24.8612 11.5944 24.5484 11.8574 24.4275 12.218ZM30.4563 12.7938C30.7914 12.743 31.0789 12.5277 31.2221 12.222L32.4997 9.50016L33.7774 12.222C33.9216 12.5288 34.208 12.7441 34.5432 12.7938L37.5017 13.2458L35.3272 15.4741C35.1018 15.7046 35.0002 16.0286 35.052 16.3465L35.5547 19.4269L32.9913 18.0091C32.8389 17.9248 32.6693 17.8821 32.4997 17.8821C32.3301 17.8821 32.1615 17.9248 32.0082 18.0091L29.4447 19.4269L29.9475 16.3465C29.9993 16.0286 29.8977 15.7036 29.6722 15.4741L27.4978 13.2458L30.4563 12.7938Z" fill="#18A0FB"/>
<path d="M15.1803 20.0464C15.0594 19.6859 14.7466 19.4228 14.3708 19.3649L12.0999 19.0176L11.0751 16.834C10.9075 16.4785 10.549 16.25 10.155 16.25C9.7609 16.25 9.40238 16.4785 9.23582 16.834L8.21105 19.0176L5.94012 19.3649C5.56332 19.4228 5.25152 19.6848 5.13066 20.0464C5.0098 20.408 5.10121 20.8051 5.36629 21.0783L7.03902 22.7927L6.64191 25.2261C6.57894 25.61 6.74144 25.9959 7.05934 26.2204C7.37824 26.4448 7.79566 26.4672 8.1359 26.2793L10.155 25.1631L12.174 26.2793C12.3284 26.3646 12.497 26.4062 12.6656 26.4062C12.8707 26.4062 13.0759 26.3433 13.2506 26.2204C13.5685 25.9959 13.731 25.61 13.668 25.2261L13.2709 22.7927L14.9436 21.0783C15.2107 20.8051 15.3011 20.408 15.1803 20.0464ZM11.459 21.7415C11.2336 21.973 11.132 22.296 11.1838 22.6139L11.327 23.4894L10.6465 23.1136C10.4932 23.0293 10.3246 22.9866 10.155 22.9866C9.98535 22.9866 9.81676 23.0293 9.6634 23.1136L8.98293 23.4894L9.12613 22.6139C9.17793 22.296 9.07637 21.972 8.8509 21.7415L8.19988 21.0752L9.05301 20.9442C9.38816 20.8934 9.67559 20.6781 9.81879 20.3724L10.155 19.6564L10.4911 20.3714C10.6354 20.6781 10.9228 20.8934 11.2569 20.9432L12.11 21.0742L11.459 21.7415Z" fill="#18A0FB"/>
<path d="M59.8678 20.0464C59.7469 19.6859 59.4341 19.4228 59.0583 19.3649L56.7874 19.0176L55.7626 16.834C55.595 16.4785 55.2365 16.25 54.8425 16.25C54.4484 16.25 54.0899 16.4785 53.9233 16.834L52.8986 19.0176L50.6276 19.3649C50.2508 19.4228 49.939 19.6848 49.8182 20.0464C49.6973 20.408 49.7887 20.8051 50.0538 21.0783L51.7265 22.7927L51.3294 25.2261C51.2664 25.61 51.4289 25.9959 51.7468 26.2204C52.0657 26.4448 52.4821 26.4672 52.8234 26.2793L54.8425 25.1631L56.8615 26.2793C57.0159 26.3646 57.1845 26.4062 57.3531 26.4062C57.5582 26.4062 57.7634 26.3433 57.9381 26.2204C58.256 25.9959 58.4185 25.61 58.3555 25.2261L57.9584 22.7927L59.6311 21.0783C59.8982 20.8051 59.9886 20.408 59.8678 20.0464ZM56.1465 21.7415C55.9211 21.973 55.8195 22.296 55.8713 22.6139L56.0145 23.4894L55.334 23.1136C55.1807 23.0293 55.0121 22.9866 54.8425 22.9866C54.6729 22.9866 54.5043 23.0293 54.3509 23.1136L53.6704 23.4894L53.8136 22.6139C53.8654 22.296 53.7639 21.972 53.5384 21.7415L52.8874 21.0752L53.7405 20.9442C54.0757 20.8934 54.3631 20.6781 54.5063 20.3724L54.8425 19.6564L55.1786 20.3714C55.3229 20.6781 55.6103 20.8934 55.9444 20.9432L56.7975 21.0742L56.1465 21.7415Z" fill="#18A0FB"/>
<path d="M21.0742 8.63041L22.8323 9.64807C23.143 9.1108 23.5005 8.59689 23.8936 8.12158L22.3295 6.82666C21.8644 7.3883 21.4419 7.99564 21.0742 8.63041Z" fill="#18A0FB"/>
<path d="M19.5273 12.7373L21.522 13.1202C21.6388 12.5118 21.8074 11.9106 22.0238 11.3306L20.1205 10.6207C19.8645 11.3063 19.6655 12.0182 19.5273 12.7373Z" fill="#18A0FB"/>
<path d="M25.0898 26.1692C25.6962 26.5805 26.3411 26.9441 27.0063 27.2478L27.8503 25.4014C27.2877 25.1444 26.7433 24.8367 26.2314 24.4904L25.0898 26.1692Z" fill="#18A0FB"/>
<path d="M23.8438 5.25456L25.1742 6.79018C25.6424 6.38495 26.1472 6.01424 26.6763 5.69229L25.617 3.95862C24.9924 4.33948 24.3962 4.7762 23.8438 5.25456Z" fill="#18A0FB"/>
<path d="M37.7075 27.3748C38.3788 27.0884 39.0319 26.7411 39.6484 26.3429L38.5484 24.6346C38.0264 24.9708 37.4749 25.2643 36.9082 25.5071L37.7075 27.3748Z" fill="#18A0FB"/>
<path d="M33.4528 28.4041C34.183 28.3523 34.9133 28.2396 35.6242 28.068L35.1469 26.0946C34.5466 26.2398 33.9281 26.3343 33.3086 26.379L33.4528 28.4041Z" fill="#18A0FB"/>
<path d="M31.2473 28.3775L31.4382 26.3564C30.8217 26.2975 30.2063 26.1878 29.608 26.0283L29.084 27.9905C29.7909 28.1794 30.518 28.3094 31.2473 28.3775Z" fill="#18A0FB"/>
<path d="M42.3105 20.5874L44.093 21.5613C44.4454 20.9164 44.745 20.24 44.9827 19.5514L43.0631 18.8872C42.862 19.4702 42.6081 20.042 42.3105 20.5874Z" fill="#18A0FB"/>
<path d="M43.5098 17.0889L45.5136 17.422C45.6324 16.704 45.6934 15.9687 45.6934 15.2344H43.6621C43.6621 15.8559 43.6103 16.4805 43.5098 17.0889Z" fill="#18A0FB"/>
<path d="M24.7888 23.3196C24.3409 22.892 23.9245 22.4238 23.5537 21.9282L21.9277 23.146C22.3655 23.731 22.856 24.2835 23.3862 24.7892L24.7888 23.3196Z" fill="#18A0FB"/>
<path d="M21.8547 18.6361L19.9199 19.2546C20.1423 19.9503 20.4257 20.6328 20.7619 21.2849L22.5666 20.3525C22.2812 19.801 22.0426 19.2242 21.8547 18.6361Z" fill="#18A0FB"/>
<path d="M40.0254 53.0482L41.3914 54.5513C41.9327 54.0598 42.4365 53.5174 42.8895 52.9426L41.2929 51.6873C40.91 52.1737 40.4834 52.6318 40.0254 53.0482Z" fill="#18A0FB"/>
<path d="M21.3281 44.7793L21.3312 44.5142L19.3009 44.4624L19.2969 44.7793C19.2969 45.4079 19.3416 46.0397 19.4299 46.6572L21.4398 46.3697C21.3657 45.8477 21.3281 45.3115 21.3281 44.7793Z" fill="#18A0FB"/>
<path d="M33.833 33.6852L34.0687 31.6682C33.3435 31.5829 32.6031 31.5565 31.877 31.592L31.9714 33.6212C32.5869 33.5918 33.2176 33.6141 33.833 33.6852Z" fill="#18A0FB"/>
<path d="M38.9863 35.6798C39.4911 36.0393 39.9684 36.4446 40.4052 36.8823L41.8423 35.4462C41.3253 34.9293 40.7616 34.4519 40.1655 34.0264L38.9863 35.6798Z" fill="#18A0FB"/>
<path d="M36.2105 32.1075L35.6387 34.0575C36.2318 34.2312 36.8158 34.4577 37.3734 34.7279L38.261 32.9007C37.6019 32.5808 36.9123 32.3147 36.2105 32.1075Z" fill="#18A0FB"/>
<path d="M29.6863 31.8739C28.9693 32.0293 28.2614 32.2456 27.584 32.5188L28.3406 34.4028C28.9124 34.1733 29.5106 33.9905 30.117 33.8594L29.6863 31.8739Z" fill="#18A0FB"/>
<path d="M45.6212 43.2138C45.5359 42.4876 45.3876 41.7625 45.1814 41.0607L43.2324 41.6314C43.4061 42.2256 43.531 42.838 43.6031 43.4515L45.6212 43.2138Z" fill="#18A0FB"/>
<path d="M41.5938 38.3023C41.9533 38.8061 42.2722 39.3423 42.5423 39.8989L44.3695 39.0102C44.0495 38.3531 43.6717 37.7184 43.2472 37.1222L41.5938 38.3023Z" fill="#18A0FB"/>
</svg>
