<svg width="731" height="734" viewBox="0 0 731 734" fill="none" xmlns="http://www.w3.org/2000/svg">
<path d="M698.5 85.1692V200.169C698.5 209.01 694.989 217.488 688.737 223.739C682.486 229.991 674.008 233.502 665.167 233.502H548.5C543.669 233.557 538.883 232.561 534.474 230.582C530.066 228.604 526.14 225.69 522.969 222.044C519.799 218.398 517.459 214.105 516.111 209.465C514.764 204.824 514.442 199.947 515.167 195.169C516.735 187.083 521.104 179.809 527.506 174.626C533.907 169.444 541.932 166.685 550.167 166.836H588.5C549.675 123.599 499.129 92.5682 443.002 77.5144C386.875 62.4607 327.584 64.0318 272.333 82.0368C217.082 100.042 168.25 133.706 131.769 178.938C95.2884 224.171 72.7296 279.025 66.8338 336.836C66.0047 345.087 62.13 352.732 55.9663 358.279C49.8027 363.827 41.7927 366.877 33.5005 366.836C28.8279 366.859 24.2026 365.9 19.9247 364.02C15.6468 362.141 11.8118 359.383 8.66867 355.925C5.52552 352.468 3.14439 348.388 1.67978 343.951C0.215174 339.514 -0.300191 334.818 0.16713 330.169C7.16775 260.188 34.1472 193.696 77.8885 138.623C121.63 83.5492 180.287 42.2175 246.867 19.5558C313.446 -3.10588 385.139 -6.14127 453.396 10.8115C521.653 27.7643 583.594 63.99 631.834 115.169V83.5025C631.779 78.6707 632.775 73.8848 634.754 69.4763C636.733 65.0678 639.646 61.1423 643.292 57.9715C646.939 54.8008 651.231 52.4607 655.871 51.1135C660.512 49.7663 665.39 49.444 670.167 50.1692C678.253 51.7367 685.527 56.1057 690.71 62.5076C695.892 68.9094 698.651 76.9339 698.5 85.1692Z" fill="#18A0FB"/>
<path d="M31.834 648.502V533.502C31.834 524.661 35.3459 516.183 41.5971 509.932C47.8483 503.681 56.3268 500.169 65.1673 500.169H181.834C186.666 500.114 191.452 501.11 195.86 503.089C200.269 505.068 204.194 507.981 207.365 511.627C210.536 515.274 212.876 519.566 214.223 524.206C215.57 528.847 215.892 533.725 215.167 538.502C213.6 546.588 209.231 553.862 202.829 559.045C196.427 564.227 188.403 566.986 180.167 566.835H141.834C180.659 610.072 231.206 641.103 287.333 656.157C343.459 671.21 402.75 669.639 458.001 651.634C513.252 633.629 562.084 599.965 598.565 554.733C635.046 509.5 657.605 454.646 663.501 396.835C664.33 388.585 668.204 380.939 674.368 375.392C680.532 369.845 688.542 366.794 696.834 366.835C701.507 366.812 706.132 367.771 710.41 369.651C714.688 371.53 718.523 374.288 721.666 377.746C724.809 381.203 727.19 385.283 728.655 389.72C730.119 394.157 730.635 398.853 730.167 403.502C723.167 473.483 696.187 539.975 652.446 595.048C608.705 650.122 550.047 691.454 483.468 714.115C416.888 736.777 345.196 739.812 276.939 722.86C208.682 705.907 146.741 669.681 98.5006 618.502V650.169C98.5554 655 97.5589 659.786 95.5803 664.195C93.6018 668.603 90.6884 672.529 87.0421 675.7C83.3957 678.87 79.1036 681.21 74.4631 682.558C69.8226 683.905 64.9447 684.227 60.1673 683.502C52.0812 681.935 44.807 677.566 39.6246 671.164C34.4421 664.762 31.6834 656.737 31.834 648.502Z" fill="#18A0FB"/>
<path d="M376.834 333.502C318.5 321.836 318.5 311.836 318.5 303.502C318.5 295.169 321.834 293.502 326.834 288.502C336.029 283.559 346.41 281.252 356.834 281.836C376.199 281.668 395.234 286.859 411.834 296.836C415.208 299.589 419.141 301.575 423.359 302.655C427.578 303.735 431.982 303.884 436.264 303.091C440.546 302.298 444.604 300.582 448.156 298.063C451.708 295.544 454.669 292.281 456.834 288.502C459.69 285.094 461.797 281.122 463.017 276.846C464.237 272.569 464.543 268.084 463.914 263.681C463.285 259.279 461.736 255.058 459.367 251.294C456.999 247.53 453.864 244.308 450.167 241.836C434.319 232.053 416.804 225.273 398.5 221.836V183.502C398.5 174.662 394.988 166.183 388.737 159.932C382.486 153.681 374.008 150.169 365.167 150.169C356.326 150.169 347.848 153.681 341.597 159.932C335.346 166.183 331.834 174.662 331.834 183.502V220.169C281.834 228.502 248.5 261.836 248.5 306.836C248.5 351.836 303.5 388.502 356.834 398.502C410.167 408.502 411.834 420.169 411.834 428.502C411.834 436.836 393.5 451.836 370.167 451.836C345.627 452.32 321.611 444.705 301.834 430.169C298.13 427.706 293.971 426.01 289.602 425.179C285.233 424.349 280.741 424.401 276.393 425.333C272.044 426.265 267.925 428.057 264.28 430.605C260.635 433.153 257.536 436.405 255.167 440.169C252.539 443.295 250.577 446.925 249.401 450.835C248.225 454.746 247.86 458.856 248.328 462.913C248.796 466.97 250.087 470.889 252.123 474.429C254.159 477.97 256.896 481.057 260.167 483.502C281.613 498.553 306.061 508.787 331.834 513.502V550.169C331.834 559.009 335.346 567.488 341.597 573.739C347.848 579.99 356.326 583.502 365.167 583.502C374.008 583.502 382.486 579.99 388.737 573.739C394.988 567.488 398.5 559.009 398.5 550.169V513.502C416.783 510.806 434.031 503.332 448.5 491.836C458.948 484.166 467.42 474.119 473.216 462.527C479.012 450.934 481.966 438.129 481.834 425.169C481.834 363.502 425.167 343.502 376.834 333.502Z" fill="#18A0FB"/>
</svg>
