<svg width="65" height="63" viewBox="0 0 65 63" fill="none" xmlns="http://www.w3.org/2000/svg">
<path fill-rule="evenodd" clip-rule="evenodd" d="M48.7027 60.0878H7.61603C7.08293 60.0878 6.66406 59.6689 6.66406 59.1359V7.53949C6.66406 7.00639 7.08293 6.58752 7.61603 6.58752H39.0308C39.5639 6.58752 39.9827 7.00639 39.9827 7.53949C39.9827 8.07259 39.5639 8.49145 39.0308 8.49145H8.49183V58.2981H47.7888V51.0632C47.7888 50.5301 48.2077 50.1112 48.7408 50.1112C49.2739 50.1112 49.6928 50.5301 49.6928 51.0632V59.212C49.6166 59.6689 49.1978 60.0878 48.7027 60.0878ZM48.7027 29.3965C48.1696 29.3965 47.7508 28.9777 47.7508 28.4446V17.2495C47.7508 16.7545 48.1696 16.3356 48.7027 16.3356C49.1978 16.3356 49.6166 16.7545 49.6166 17.2495V28.5207C49.6166 28.9777 49.1978 29.3965 48.7027 29.3965Z" fill="#18A0FB"/>
<path fill-rule="evenodd" clip-rule="evenodd" d="M48.702 18.1634H39.0301C38.497 18.1634 38.0781 17.7445 38.0781 17.2114V7.53949C38.0781 7.19679 38.2685 6.85408 38.6493 6.70177C39.0301 6.54945 39.3728 6.66369 39.6393 6.93024L49.3874 16.6403C49.6159 16.9068 49.7301 17.3257 49.5778 17.6303C49.4255 17.973 49.1209 18.1634 48.702 18.1634ZM39.9059 16.3356H46.4554L39.9059 9.78613V16.3356Z" fill="#18A0FB"/>
<path fill-rule="evenodd" clip-rule="evenodd" d="M7.6157 50.7967H0.951962C0.418863 50.7967 0 50.3779 0 49.8448V0.951962C0 0.418863 0.418863 0 0.951962 0H35.6415C36.1746 0 36.5934 0.418863 36.5934 0.951962V7.53954C36.5934 8.07264 36.1746 8.4915 35.6415 8.4915C35.1084 8.4915 34.6895 8.07264 34.6895 7.53954V1.86585H1.90392V48.8928H7.6157C8.1488 48.8928 8.56766 49.3117 8.56766 49.8448C8.56766 50.3779 8.07264 50.7967 7.6157 50.7967Z" fill="#18A0FB"/>
<path fill-rule="evenodd" clip-rule="evenodd" d="M37.7356 49.1975C34.042 49.1975 30.5768 47.7886 27.9494 45.1611C25.2839 42.4956 23.875 39.0305 23.875 35.3369C23.875 31.6433 25.2839 28.1401 27.9494 25.5126C33.3185 20.1055 42.1527 20.1055 47.5217 25.5126C52.967 30.9579 52.967 39.754 47.5217 45.1611C44.9324 47.7886 41.4673 49.1975 37.7356 49.1975ZM37.7356 23.3422C34.6893 23.3422 31.643 24.4845 29.2441 26.8073C24.5604 31.529 24.5604 39.1447 29.2441 43.8284C31.5288 46.1131 34.537 47.3697 37.7356 47.3697C40.9722 47.3697 43.9804 46.1131 46.2652 43.8284C50.9488 39.1447 50.9488 31.529 46.2652 26.8073C43.8662 24.4845 40.8199 23.3422 37.7356 23.3422Z" fill="#18A0FB"/>
<path fill-rule="evenodd" clip-rule="evenodd" d="M59.935 62.6391C59.2877 62.6391 58.7165 62.3725 58.2976 61.9537L47.9022 51.5202C47.4833 51.1013 47.2168 50.5301 47.2168 49.8828C47.2168 49.2735 47.4833 48.7024 47.9022 48.2454L50.6819 45.4657C51.5958 44.5518 53.0809 44.5518 53.9186 45.4657L64.314 55.8611C65.2279 56.775 65.2279 58.2601 64.314 59.0978L61.4962 61.8775C61.1535 62.4106 60.5824 62.6391 59.935 62.6391ZM52.3193 46.6842C52.2051 46.6842 52.1289 46.7223 52.0147 46.7984L49.1969 49.5782C49.0446 49.7305 49.0446 50.0732 49.1969 50.2255L59.6304 60.6209C59.7827 60.7732 60.0873 60.7732 60.2396 60.6209L63.0575 57.8031C63.2098 57.6508 63.2098 57.3462 63.0575 57.1939L52.662 46.7984C52.5478 46.7223 52.4336 46.6842 52.3193 46.6842Z" fill="#18A0FB"/>
<path fill-rule="evenodd" clip-rule="evenodd" d="M49.9597 48.4739C49.7312 48.4739 49.4647 48.3597 49.3123 48.2073L46.2661 45.1611C45.8853 44.7803 45.8853 44.2091 46.2661 43.8283C46.6088 43.4475 47.218 43.4475 47.5607 43.8283L50.6451 46.8746C51.0259 47.2554 51.0259 47.8266 50.6451 48.2073C50.3785 48.3597 50.1501 48.4739 49.9597 48.4739Z" fill="#18A0FB"/>
<path fill-rule="evenodd" clip-rule="evenodd" d="M38.9547 53.843H13.2137C12.6806 53.843 12.2617 53.4242 12.2617 52.8911C12.2617 52.396 12.6806 51.9772 13.2137 51.9772H38.9547C39.4878 51.9772 39.9067 52.396 39.9067 52.8911C39.9067 53.4242 39.4878 53.843 38.9547 53.843Z" fill="#18A0FB"/>
<path fill-rule="evenodd" clip-rule="evenodd" d="M21.8575 46.8365H13.2137C12.6806 46.8365 12.2617 46.4177 12.2617 45.8846C12.2617 45.3515 12.6806 44.9326 13.2137 44.9326H21.8194C22.3525 44.9326 22.7714 45.3515 22.7714 45.8846C22.7714 46.4177 22.3525 46.8365 21.8575 46.8365Z" fill="#18A0FB"/>
<path fill-rule="evenodd" clip-rule="evenodd" d="M21.8575 39.8301H13.2137C12.6806 39.8301 12.2617 39.3731 12.2617 38.8781C12.2617 38.345 12.6806 37.9261 13.2137 37.9261H21.8194C22.3525 37.9261 22.7714 38.345 22.7714 38.8781C22.7714 39.3731 22.3525 39.8301 21.8575 39.8301Z" fill="#18A0FB"/>
<path fill-rule="evenodd" clip-rule="evenodd" d="M21.8575 32.7856H13.2137C12.6806 32.7856 12.2617 32.3668 12.2617 31.8337C12.2617 31.3006 12.6806 30.8817 13.2137 30.8817H21.8194C22.3525 30.8817 22.7714 31.3006 22.7714 31.8337C22.7714 32.3668 22.3525 32.7856 21.8575 32.7856Z" fill="#18A0FB"/>
<path fill-rule="evenodd" clip-rule="evenodd" d="M21.8575 25.703H13.2137C12.6806 25.703 12.2617 25.2841 12.2617 24.751C12.2617 24.256 12.6806 23.7991 13.2137 23.7991H21.8194C22.3525 23.7991 22.7714 24.256 22.7714 24.751C22.7714 25.2841 22.3525 25.703 21.8575 25.703Z" fill="#18A0FB"/>
<path fill-rule="evenodd" clip-rule="evenodd" d="M33.9665 18.5823H13.2137C12.6806 18.5823 12.2617 18.1634 12.2617 17.6303C12.2617 17.0972 12.6806 16.6783 13.2137 16.6783H33.9665C34.4996 16.6783 34.9184 17.0972 34.9184 17.6303C34.9184 18.1634 34.4996 18.5823 33.9665 18.5823Z" fill="#18A0FB"/>
<path fill-rule="evenodd" clip-rule="evenodd" d="M33.2813 41.239C33.1671 41.239 33.0529 41.239 33.0148 41.201H32.9006C32.7863 41.201 32.6721 41.201 32.5959 41.1248C32.4817 41.1248 32.4055 41.0867 32.3294 41.0106C32.2151 40.9725 32.1009 40.9344 32.0628 40.8583C32.0628 40.8583 31.9867 40.8583 31.9867 40.8202C31.9105 40.7821 31.8344 40.706 31.7201 40.6679C31.682 40.5917 31.644 40.5917 31.5678 40.5536L31.5297 40.5156L31.3013 40.4013C31.2632 40.3252 31.2251 40.2871 31.1489 40.249C31.0347 40.1348 30.9966 40.0205 30.9586 39.9063L28.4454 35.6034C27.76 34.3849 28.1788 32.8999 29.3593 32.1764C29.3593 32.1764 29.3593 32.1764 29.3973 32.1764C30.6158 31.4529 32.139 31.9479 32.8625 33.0903L34.1571 35.375L43.6768 29.8917C44.8191 29.2062 46.3803 29.587 47.1038 30.7675C47.7892 31.986 47.3704 33.5472 46.1519 34.2326L34.4999 40.8583C34.3856 40.9344 34.3095 40.9725 34.2333 41.0106C34.1571 41.0867 34.0429 41.0867 34.0048 41.1248C33.9668 41.1248 33.9668 41.201 33.8906 41.201C33.7764 41.239 33.7002 41.239 33.5479 41.239H33.4717C33.4337 41.239 33.3194 41.239 33.2813 41.239ZM33.0529 39.3351C33.0909 39.3351 33.1671 39.3351 33.1671 39.3351C33.2052 39.3351 33.2052 39.3351 33.2813 39.3351H33.3194C33.3194 39.3351 33.3194 39.3351 33.3575 39.3351C33.4337 39.3351 33.4337 39.3351 33.4717 39.297C33.5479 39.297 33.5479 39.2209 33.586 39.2209C33.586 39.2209 33.624 39.2209 33.7002 39.1828L45.1999 32.5191C45.5045 32.3287 45.6188 31.9479 45.4665 31.6433C45.3141 31.3006 44.8953 31.2244 44.5526 31.4148L34.2333 37.3931C33.7764 37.6597 33.2052 37.5074 32.9386 37.0504L31.1489 34.0041C30.9966 33.6995 30.5778 33.5853 30.2731 33.7376C29.9304 33.9661 29.8162 34.3088 30.0447 34.6515L32.634 39.0686C32.6721 39.1447 32.6721 39.1447 32.7482 39.1828C32.7482 39.1828 32.7482 39.1828 32.7863 39.2209C32.8625 39.2209 32.8625 39.297 32.9006 39.3351C32.9006 39.3351 32.9386 39.3351 32.9386 39.3732C33.0148 39.3732 33.0148 39.4494 33.0529 39.4494C33.0148 39.3351 33.0529 39.3351 33.0529 39.3351Z" fill="#18A0FB"/>
</svg>
