<svg width="22" height="22" viewBox="0 0 22 22" fill="none" xmlns="http://www.w3.org/2000/svg">
<path fill-rule="evenodd" clip-rule="evenodd" d="M14.0459 11.9081C11.1976 11.9081 8.89062 9.60117 8.89062 6.76579C8.89062 3.91752 11.1976 1.59766 14.0459 1.59766C16.8813 1.59766 19.1753 3.90463 19.1753 6.74001C19.1753 9.58828 16.8813 11.9081 14.0459 11.9081ZM14.0459 2.21629C11.5456 2.21629 9.52214 4.25261 9.52214 6.74001C9.52214 9.2403 11.5585 11.2637 14.0459 11.2637C16.5333 11.2637 18.5438 9.22742 18.5438 6.74001C18.5696 4.25261 16.5462 2.21629 14.0459 2.21629Z" fill="white"/>
<path fill-rule="evenodd" clip-rule="evenodd" d="M17.8075 10.065C17.7173 10.065 17.6271 10.0263 17.5627 9.94896C16.6991 8.86636 15.4232 8.24773 14.0442 8.24773C12.6652 8.24773 11.3635 8.86636 10.5 9.94896C10.3969 10.0907 10.2035 10.1036 10.0489 10.0005C9.90712 9.88452 9.89423 9.6912 9.99733 9.54943C10.9897 8.31217 12.4461 7.61621 14.0184 7.61621C15.5908 7.61621 17.0471 8.31217 18.0395 9.54943C18.1555 9.6912 18.1297 9.88452 17.988 10.0005C17.9493 10.0521 17.8849 10.065 17.8075 10.065Z" fill="white"/>
<path fill-rule="evenodd" clip-rule="evenodd" d="M14.0496 7.0625C12.9412 7.0625 12.0391 6.17322 12.0391 5.07773C12.0391 3.96936 12.9412 3.08008 14.0496 3.08008C15.1322 3.08008 16.0344 3.96936 16.0344 5.07773C16.0344 6.17322 15.158 7.0625 14.0496 7.0625ZM14.0496 3.69871C13.2892 3.69871 12.6706 4.31734 12.6706 5.07773C12.6706 5.83813 13.2763 6.44387 14.0496 6.44387C14.7971 6.44387 15.4029 5.83813 15.4029 5.07773C15.4029 4.33022 14.7971 3.69871 14.0496 3.69871Z" fill="white"/>
<path fill-rule="evenodd" clip-rule="evenodd" d="M3.96933 20.4261C3.84045 20.4261 3.71157 20.3617 3.6729 20.2328C3.62135 20.0653 3.69868 19.8977 3.85334 19.8204C6.0572 18.9956 7.23002 19.2147 8.50594 19.4338C10.5423 19.7817 12.8621 20.1942 20.8785 15.3869C21.4456 15.026 21.4456 14.459 21.1878 14.0336C20.943 13.6212 20.4274 13.3506 19.8475 13.6857C19.2933 14.0336 18.8035 14.3301 18.3009 14.6523C14.718 16.8948 12.5657 18.2352 7.46201 15.838C7.30735 15.7607 7.23002 15.5673 7.32024 15.4256C7.39756 15.258 7.59089 15.1936 7.73266 15.2838C9.58854 16.1602 11.0191 16.5082 12.295 16.4824C12.3337 16.4824 12.3466 16.4566 12.3853 16.4566C12.7332 16.4566 12.9523 16.1602 12.991 15.8895C13.0039 15.7607 13.0297 15.3482 12.5399 15.2065L8.96991 14.1367C7.32024 13.6599 6.52117 14.0594 5.15503 14.7425C4.81994 14.9229 4.44619 15.1034 4.02088 15.2967C3.85334 15.374 3.6729 15.2967 3.60846 15.142C3.53113 14.9745 3.60846 14.794 3.76312 14.7296C4.17554 14.5363 4.53641 14.3558 4.89727 14.1754C6.28919 13.4795 7.28157 12.951 9.16324 13.531L12.7332 14.6007C13.455 14.8198 13.6998 15.4384 13.6354 15.9797C13.6096 16.1086 13.5839 16.2117 13.5323 16.3406C14.9887 16.0184 16.3161 15.1936 17.9916 14.1239C18.4942 13.8145 18.9969 13.4923 19.5511 13.1573C20.4403 12.616 21.3425 13.0284 21.742 13.7114C22.1544 14.4074 22.1287 15.3869 21.2136 15.9282C12.991 20.8386 10.5552 20.4133 8.38995 20.0395C7.21713 19.8204 6.10875 19.64 4.07243 20.3875C4.03377 20.4133 3.9951 20.4261 3.96933 20.4261Z" fill="white"/>
<path fill-rule="evenodd" clip-rule="evenodd" d="M0.927944 20.9678C0.463972 20.9678 0.0902168 20.6069 0.0902168 20.143L0 15.0651C0 14.6011 0.347979 14.2402 0.799063 14.2273L3.33802 14.1758C3.80199 14.1758 4.17575 14.5366 4.17575 15.0006L4.26596 20.0914C4.26596 20.5554 3.9051 20.9291 3.44112 20.9291L0.927944 20.9678ZM3.35091 14.8202L0.811951 14.8717C0.708846 14.8717 0.618629 14.962 0.618629 15.0651L0.708846 20.1559C0.708846 20.2719 0.799063 20.3621 0.902167 20.3621L3.44112 20.3105C3.55712 20.3105 3.64733 20.2203 3.64733 20.1043L3.55712 15.0135C3.55712 14.9104 3.4669 14.8202 3.35091 14.8202Z" fill="white"/>
<path fill-rule="evenodd" clip-rule="evenodd" d="M2.08488 17.3712C1.85289 17.3712 1.6209 17.281 1.42758 17.1006C1.22137 16.9202 1.11827 16.6753 1.11827 16.4046C1.10538 16.1598 1.20848 15.902 1.38892 15.7087C1.56935 15.5153 1.81423 15.4251 2.08488 15.4122C2.62618 15.3865 3.06437 15.8118 3.09015 16.366C3.09015 16.9202 2.63906 17.3712 2.09776 17.3712C2.09776 17.3712 2.09776 17.3712 2.08488 17.3712ZM2.13643 16.0309H2.12354C2.03332 16.0309 1.94311 16.0695 1.86578 16.134C1.80134 16.2113 1.76267 16.3015 1.77556 16.3917C1.77556 16.4948 1.81423 16.5851 1.89155 16.6624C1.956 16.7268 2.03332 16.7655 2.12354 16.7526C2.32975 16.7526 2.4973 16.5851 2.4973 16.366C2.47152 16.1984 2.31686 16.0309 2.13643 16.0309Z" fill="white"/>
</svg>
