<svg width="22" height="22" viewBox="0 0 22 22" fill="none" xmlns="http://www.w3.org/2000/svg">
<g clip-path="url(#clip0_3351_2166)">
<path d="M1.09961 13.7002H8.7998C9.13111 13.7002 9.40029 13.9685 9.40039 14.2998V20.9004C9.40018 21.2316 9.13105 21.5 8.7998 21.5H1.09961C0.768547 21.4998 0.50021 21.2315 0.5 20.9004V14.2998C0.500106 13.9687 0.768483 13.7004 1.09961 13.7002ZM13.2002 8.2002H20.9004C21.2315 8.20041 21.4999 8.46865 21.5 8.7998V20.9004C21.4998 21.2315 21.2315 21.4998 20.9004 21.5H13.2002C12.869 21.5 12.5998 21.2316 12.5996 20.9004V8.7998C12.5997 8.46852 12.8689 8.2002 13.2002 8.2002ZM1.09961 0.5H8.7998C9.13105 0.5 9.40018 0.768418 9.40039 1.09961V9.90039C9.40018 10.2316 9.13105 10.5 8.7998 10.5H1.09961C0.768548 10.4998 0.500211 10.2315 0.5 9.90039V1.09961C0.500211 0.768548 0.768548 0.500211 1.09961 0.5ZM13.2002 0.5H20.9004C21.2315 0.50021 21.4998 0.768547 21.5 1.09961V4.40039C21.4998 4.73145 21.2315 4.99979 20.9004 5H13.2002C12.869 5 12.5998 4.73158 12.5996 4.40039V1.09961C12.5998 0.768418 12.869 0.5 13.2002 0.5Z" fill="#111827" stroke="white"/>
</g>
<defs>
<clipPath id="clip0_3351_2166">
<rect width="22" height="22" fill="white"/>
</clipPath>
</defs>
</svg>
