<svg width="22" height="22" viewBox="0 0 22 22" fill="none" xmlns="http://www.w3.org/2000/svg">
<path d="M9.02468 11.8718C12.3197 11.8718 14.9908 9.21423 14.9908 5.93592C14.9908 2.6576 12.3197 0 9.02468 0C5.7297 0 3.05859 2.6576 3.05859 5.93592C3.05859 9.21423 5.7297 11.8718 9.02468 11.8718Z" fill="white"/>
<path d="M10.5898 21.9999C11.5966 21.9999 11.0373 21.2951 11.0373 21.2951C10.2134 20.2548 9.69104 19.0101 9.52673 17.6958C9.36243 16.3815 9.56242 15.0475 10.1051 13.8381L10.1796 13.6897C10.2306 13.6262 10.2626 13.5497 10.2721 13.4689C10.2815 13.3882 10.268 13.3064 10.233 13.233C10.198 13.1595 10.143 13.0973 10.0743 13.0534C10.0055 13.0096 9.92574 12.9858 9.84405 12.9848C9.54687 12.9531 9.24793 12.9407 8.94914 12.9477C6.76869 12.95 4.66247 13.7359 3.01813 15.1606C1.37379 16.5853 0.301989 18.553 0 20.7015C0 21.1467 0.149153 21.9999 1.5661 21.9999H10.5898Z" fill="white"/>
<path d="M16.7051 11.4639C15.6578 11.4639 14.6341 11.7728 13.7634 12.3517C12.8926 12.9306 12.214 13.7533 11.8132 14.716C11.4124 15.6786 11.3076 16.7378 11.5119 17.7598C11.7162 18.7817 12.2205 19.7204 12.961 20.4571C13.7015 21.1939 14.645 21.6956 15.6721 21.8989C16.6992 22.1022 17.7638 21.9978 18.7313 21.5991C19.6989 21.2004 20.5258 20.5251 21.1076 19.6588C21.6894 18.7925 22 17.7739 22 16.732C21.9951 15.3363 21.4356 13.9992 20.4437 13.0123C19.4518 12.0254 18.1078 11.4688 16.7051 11.4639ZM14.9152 19.9225C14.6571 19.9225 14.4048 19.8464 14.1902 19.7037C13.9756 19.561 13.8083 19.3582 13.7095 19.121C13.6107 18.8837 13.5849 18.6226 13.6352 18.3707C13.6856 18.1189 13.8099 17.8875 13.9924 17.7059C14.1749 17.5243 14.4075 17.4006 14.6606 17.3505C14.9138 17.3004 15.1762 17.3261 15.4147 17.4244C15.6531 17.5227 15.857 17.6891 16.0004 17.9027C16.1438 18.1162 16.2203 18.3673 16.2203 18.6241C16.2164 18.9672 16.0777 19.2953 15.8338 19.538C15.5899 19.7806 15.2602 19.9187 14.9152 19.9225ZM16.2203 15.5077C16.2003 15.6081 16.1479 15.6993 16.0712 15.7674L15.0644 16.3239C15.0477 16.3416 15.0274 16.3558 15.005 16.3655C14.9825 16.3751 14.9583 16.3801 14.9339 16.3801C14.9094 16.3801 14.8852 16.3751 14.8628 16.3655C14.8403 16.3558 14.8201 16.3416 14.8034 16.3239L13.7966 15.7674C13.755 15.7368 13.7202 15.6979 13.6945 15.6532C13.6689 15.6085 13.6528 15.5589 13.6474 15.5077V14.3576C13.6528 14.3064 13.6689 14.2569 13.6945 14.2122C13.7202 14.1674 13.755 14.1285 13.7966 14.0979L14.8034 13.5414C14.8201 13.5237 14.8403 13.5096 14.8628 13.4999C14.8852 13.4902 14.9094 13.4852 14.9339 13.4852C14.9583 13.4852 14.9825 13.4902 15.005 13.4999C15.0274 13.5096 15.0477 13.5237 15.0644 13.5414L16.0712 14.0979C16.1128 14.1285 16.1475 14.1674 16.1732 14.2122C16.1989 14.2569 16.2149 14.3064 16.2203 14.3576V15.5077ZM17.1898 13.9124C17.1888 13.878 17.1948 13.8438 17.2076 13.8118C17.2203 13.7799 17.2395 13.7508 17.264 13.7265C17.2884 13.7022 17.3176 13.6831 17.3497 13.6704C17.3819 13.6577 17.4163 13.6517 17.4508 13.6527H19.3898C19.4244 13.6517 19.4588 13.6577 19.4909 13.6704C19.523 13.6831 19.5522 13.7022 19.5767 13.7265C19.6011 13.7508 19.6203 13.7799 19.6331 13.8118C19.6458 13.8438 19.6519 13.878 19.6508 13.9124V15.8416C19.6519 15.876 19.6458 15.9102 19.6331 15.9422C19.6203 15.9742 19.6011 16.0032 19.5767 16.0275C19.5522 16.0518 19.523 16.0709 19.4909 16.0836C19.4588 16.0963 19.4244 16.1023 19.3898 16.1013H17.4881C17.4536 16.1023 17.4192 16.0963 17.387 16.0836C17.3549 16.0709 17.3257 16.0518 17.3013 16.0275C17.2768 16.0032 17.2576 15.9742 17.2449 15.9422C17.2321 15.9102 17.2261 15.876 17.2271 15.8416L17.1898 13.9124ZM19.7627 18.8096L18.6068 19.9967C18.59 20.0145 18.5698 20.0286 18.5474 20.0383C18.5249 20.048 18.5007 20.053 18.4762 20.053C18.4518 20.053 18.4276 20.048 18.4051 20.0383C18.3827 20.0286 18.3625 20.0145 18.3457 19.9967L17.1898 18.8096C17.172 18.7929 17.1578 18.7728 17.148 18.7505C17.1383 18.7281 17.1333 18.7041 17.1333 18.6797C17.1333 18.6554 17.1383 18.6313 17.148 18.609C17.1578 18.5866 17.172 18.5665 17.1898 18.5499L18.3457 17.3627C18.3625 17.3449 18.3827 17.3308 18.4051 17.3211C18.4276 17.3115 18.4518 17.3065 18.4762 17.3065C18.5007 17.3065 18.5249 17.3115 18.5474 17.3211C18.5698 17.3308 18.59 17.3449 18.6068 17.3627L19.7627 18.5499C19.7805 18.5665 19.7947 18.5866 19.8045 18.609C19.8142 18.6313 19.8192 18.6554 19.8192 18.6797C19.8192 18.7041 19.8142 18.7281 19.8045 18.7505C19.7947 18.7728 19.7805 18.7929 19.7627 18.8096Z" fill="white"/>
</svg>
