<svg width="17" height="20" viewBox="0 0 17 20" fill="none" xmlns="http://www.w3.org/2000/svg">
<path d="M4.55675 0.351526C4.73681 0.55724 4.82782 0.826035 4.80977 1.09883C4.79173 1.37162 4.6661 1.62608 4.4605 1.80628L2.59737 3.43703L4.4605 5.06778C4.56633 5.15579 4.65347 5.2641 4.71678 5.38632C4.78009 5.50854 4.81829 5.6422 4.82914 5.77942C4.83998 5.91664 4.82324 6.05464 4.77991 6.18528C4.73658 6.31593 4.66754 6.43658 4.57685 6.54013C4.48615 6.64367 4.37565 6.72801 4.25185 6.78818C4.12805 6.84834 3.99346 6.88311 3.85601 6.89044C3.71856 6.89777 3.58103 6.87751 3.45153 6.83085C3.32204 6.7842 3.20319 6.71209 3.102 6.61878L0.352 4.21253C0.24158 4.11574 0.153102 3.99648 0.0924855 3.86274C0.0318691 3.729 0.000512064 3.58386 0.000512064 3.43703C0.000512064 3.29019 0.0318691 3.14505 0.0924855 3.01131C0.153102 2.87757 0.24158 2.75831 0.352 2.66153L3.102 0.255276C3.30771 0.075213 3.57651 -0.0157969 3.8493 0.00225167C4.12209 0.0203002 4.37655 0.14593 4.55675 0.351526ZM7.13075 0.351526C6.95069 0.55724 6.85968 0.826035 6.87773 1.09883C6.89577 1.37162 7.0214 1.62608 7.227 1.80628L9.09013 3.43703L7.227 5.06778C7.12117 5.15579 7.03403 5.2641 6.97072 5.38632C6.90741 5.50854 6.86921 5.6422 6.85836 5.77942C6.84752 5.91664 6.86426 6.05464 6.90759 6.18528C6.95092 6.31593 7.01996 6.43658 7.11065 6.54013C7.20135 6.64367 7.31185 6.72801 7.43565 6.78818C7.55945 6.84834 7.69404 6.88311 7.83149 6.89044C7.96894 6.89777 8.10647 6.87751 8.23597 6.83085C8.36546 6.7842 8.48431 6.71209 8.5855 6.61878L11.3355 4.21253C11.4459 4.11574 11.5344 3.99648 11.595 3.86274C11.6556 3.729 11.687 3.58386 11.687 3.43703C11.687 3.29019 11.6556 3.14505 11.595 3.01131C11.5344 2.87757 11.4459 2.75831 11.3355 2.66153L8.5855 0.255276C8.37979 0.075213 8.11099 -0.0157969 7.8382 0.00225167C7.56541 0.0203002 7.31095 0.14593 7.13075 0.351526ZM1.03125 8.93703C0.757745 8.93703 0.495443 9.04568 0.302046 9.23907C0.108649 9.43247 0 9.69477 0 9.96828C0 10.2418 0.108649 10.5041 0.302046 10.6975C0.495443 10.8909 0.757745 10.9995 1.03125 10.9995H15.4688C15.7423 10.9995 16.0046 10.8909 16.198 10.6975C16.3914 10.5041 16.5 10.2418 16.5 9.96828C16.5 9.69477 16.3914 9.43247 16.198 9.23907C16.0046 9.04568 15.7423 8.93703 15.4688 8.93703H1.03125ZM0 14.0933C0 13.8198 0.108649 13.5575 0.302046 13.3641C0.495443 13.1707 0.757745 13.062 1.03125 13.062H15.4688C15.7423 13.062 16.0046 13.1707 16.198 13.3641C16.3914 13.5575 16.5 13.8198 16.5 14.0933C16.5 14.3668 16.3914 14.6291 16.198 14.8225C16.0046 15.0159 15.7423 15.1245 15.4688 15.1245H1.03125C0.757745 15.1245 0.495443 15.0159 0.302046 14.8225C0.108649 14.6291 0 14.3668 0 14.0933ZM1.03125 17.187C0.757745 17.187 0.495443 17.2957 0.302046 17.4891C0.108649 17.6825 0 17.9448 0 18.2183C0 18.4918 0.108649 18.7541 0.302046 18.9475C0.495443 19.1409 0.757745 19.2495 1.03125 19.2495H9.96875C10.2423 19.2495 10.5046 19.1409 10.698 18.9475C10.8914 18.7541 11 18.4918 11 18.2183C11 17.9448 10.8914 17.6825 10.698 17.4891C10.5046 17.2957 10.2423 17.187 9.96875 17.187H1.03125Z" fill="white"/>
</svg>
