<svg width="22" height="22" viewBox="0 0 22 22" fill="none" xmlns="http://www.w3.org/2000/svg">
<g clip-path="url(#clip0_3351_2062)">
<path d="M10.0807 2.75H3.66406C2.93472 2.75 2.23524 3.03973 1.71952 3.55546C1.20379 4.07118 0.914063 4.77065 0.914062 5.5V18.3333C0.914063 19.0627 1.20379 19.7622 1.71952 20.2779C2.23524 20.7936 2.93472 21.0833 3.66406 21.0833H16.4974C17.2267 21.0833 17.9262 20.7936 18.4419 20.2779C18.9577 19.7622 19.2474 19.0627 19.2474 18.3333V11.9167" stroke="white" stroke-linecap="round" stroke-linejoin="round"/>
<path d="M17.4167 8.25033C19.4417 8.25033 21.0833 6.6087 21.0833 4.58366C21.0833 2.55861 19.4417 0.916992 17.4167 0.916992C15.3916 0.916992 13.75 2.55861 13.75 4.58366C13.75 6.6087 15.3916 8.25033 17.4167 8.25033Z" stroke="white" stroke-linecap="round" stroke-linejoin="round"/>
</g>
<defs>
<clipPath id="clip0_3351_2062">
<rect width="22" height="22" fill="white"/>
</clipPath>
</defs>
</svg>
