<svg width="22" height="22" viewBox="0 0 22 22" fill="none" xmlns="http://www.w3.org/2000/svg">
<path d="M4.15775 8.76324V7.17997H4.52105C5.28802 7.17997 5.53022 6.81177 5.53022 6.20424V2.00675C5.53022 1.49127 5.04582 1.14148 4.42014 1.14148H0V7.03269L3.24951 9.37077C3.69354 9.64692 4.15775 9.29713 4.15775 8.76324ZM4.4605 1.76742C4.64215 1.76742 4.88435 1.87788 4.88435 2.0988V6.25947C4.88435 6.46198 4.72288 6.59085 4.52105 6.59085H4.15775V4.17914C4.15775 3.9214 4.0972 3.64525 3.69354 3.36909L1.211 1.76742H4.4605Z" fill="white"/>
<path d="M18.0448 8.0636H10.5366C9.5678 8.0636 8.92194 8.45021 8.33662 9.09456L5.91463 12.0402L2.48348 9.55481C0.888997 8.48703 -0.907314 10.5674 0.646798 11.6536L5.14767 14.8937C6.11646 15.5197 6.88343 15.2435 7.30728 14.8569L10.6173 10.8251V17.0109L18.0448 8.0636Z" fill="white"/>
<path d="M18.3461 2.06192V0H10.2324L11.7865 2.06192H18.3461Z" fill="white"/>
<path d="M10.5352 4.21592H12.0691C12.0691 5.89124 13.5021 7.05107 15.1773 7.05107C16.792 7.05107 18.3461 5.87283 18.3461 4.16069V2.7063H11.8471L10.5352 4.21592Z" fill="white"/>
<path d="M19.9008 8.10046L12.3523 17.3423H18.9119V18.8151H10.6367V22H21.9999V10.2176C22.0201 8.48707 20.7687 8.10046 19.9008 8.10046Z" fill="white"/>
</svg>
