<svg width="22" height="22" viewBox="0 0 22 22" fill="none" xmlns="http://www.w3.org/2000/svg">
<path d="M20.6276 7.41391V6.87534C20.6271 6.59131 20.5387 6.31438 20.3746 6.08256C20.2105 5.85074 19.9787 5.67539 19.7109 5.58056V5.04199C19.7105 4.67744 19.5655 4.32794 19.3078 4.07016C19.05 3.81238 18.7005 3.66739 18.3359 3.66699H3.66924C3.30469 3.66739 2.95519 3.81238 2.69741 4.07016C2.43963 4.32794 2.29464 4.67744 2.29424 5.04199V5.58056C2.02651 5.67539 1.79467 5.85074 1.63055 6.08256C1.46644 6.31438 1.37807 6.59131 1.37759 6.87534V7.41391C1.10985 7.50874 0.878021 7.68409 0.713902 7.91591C0.549784 8.14773 0.461421 8.42465 0.460938 8.70869V16.9587C0.461336 17.3232 0.606329 17.6727 0.864105 17.9305C1.12188 18.1883 1.47139 18.3333 1.83594 18.3337H20.1692C20.5338 18.3333 20.8833 18.1883 21.1411 17.9305C21.3989 17.6727 21.5438 17.3232 21.5442 16.9587V8.70869C21.5438 8.42465 21.4554 8.14773 21.2913 7.91591C21.1272 7.68409 20.8953 7.50874 20.6276 7.41391ZM3.66924 4.58369H18.3359C18.4575 4.58382 18.574 4.63216 18.6599 4.71809C18.7458 4.80401 18.7941 4.92052 18.7943 5.04204V5.50034H3.21094V5.04199C3.21109 4.92049 3.25942 4.804 3.34534 4.71809C3.43125 4.63217 3.54774 4.58384 3.66924 4.58369ZM2.75259 6.41699H19.2526C19.3741 6.41713 19.4906 6.46546 19.5765 6.55139C19.6625 6.63732 19.7108 6.75382 19.7109 6.87534V7.33369H2.29424V6.87534C2.29438 6.75382 2.34271 6.63732 2.42864 6.55139C2.51457 6.46546 2.63107 6.41713 2.75259 6.41699ZM20.6276 16.9587C20.6274 17.0802 20.5791 17.1967 20.4932 17.2826C20.4072 17.3685 20.2908 17.4169 20.1692 17.417H1.83594C1.71442 17.4169 1.59793 17.3685 1.51201 17.2826C1.42609 17.1967 1.37775 17.0802 1.37759 16.9587V8.70869C1.37773 8.58717 1.42606 8.47066 1.51199 8.38474C1.59791 8.29881 1.71442 8.25048 1.83594 8.25034H20.1692C20.2908 8.25048 20.4073 8.29881 20.4932 8.38474C20.5791 8.47066 20.6275 8.58717 20.6276 8.70869V16.9587Z" fill="white"/>
<path d="M11.3239 12.4578C11.2732 12.4383 11.2259 12.4206 11.1852 12.4025C11.1379 12.3817 11.0809 12.3598 11.018 12.3358C10.7163 12.2215 10.5418 12.1317 10.5418 12.0131C10.5418 11.9794 10.5964 11.8885 10.728 11.8218C10.826 11.7726 11.1816 11.637 11.6453 11.978C11.7433 12.0491 11.8654 12.0785 11.985 12.0599C12.1046 12.0412 12.212 11.976 12.2837 11.8785C12.3554 11.781 12.3856 11.659 12.3677 11.5393C12.3498 11.4196 12.2853 11.3118 12.1882 11.2395C11.9699 11.0767 11.7221 10.9579 11.4584 10.8898V10.5418C11.4573 10.421 11.4085 10.3056 11.3226 10.2206C11.2368 10.1356 11.1209 10.0879 11.0001 10.0879C10.8793 10.0879 10.7634 10.1356 10.6776 10.2206C10.5918 10.3056 10.543 10.421 10.5418 10.5418V10.9109C10.4635 10.936 10.3874 10.9671 10.314 11.0041C9.88904 11.2191 9.625 11.6056 9.625 12.0133C9.625 12.7876 10.3461 13.0617 10.6925 13.1931C10.7384 13.2103 10.7803 13.226 10.8151 13.2414C10.8686 13.2649 10.9304 13.2887 10.9966 13.3142C11.3505 13.4494 11.4583 13.5234 11.4583 13.6309C11.4583 13.6646 11.4037 13.7555 11.2719 13.822C11.1739 13.8719 10.8183 14.0068 10.3548 13.666C10.2568 13.594 10.1343 13.5639 10.0142 13.5822C9.894 13.6006 9.78605 13.6659 9.71405 13.7638C9.64206 13.8618 9.61192 13.9843 9.63026 14.1045C9.64861 14.2246 9.71393 14.3326 9.81187 14.4046C10.0304 14.5659 10.2783 14.683 10.5417 14.7494V15.125C10.5428 15.2458 10.5916 15.3612 10.6775 15.4462C10.7633 15.5312 10.8792 15.5789 11 15.5789C11.1208 15.5789 11.2367 15.5312 11.3225 15.4462C11.4083 15.3612 11.4571 15.2458 11.4583 15.125V14.7309C11.5364 14.7065 11.6124 14.6761 11.6857 14.6398C12.111 14.4246 12.3751 14.0379 12.3751 13.6307C12.3751 12.8593 11.665 12.588 11.3239 12.4578Z" fill="white"/>
<path d="M11 8.70801C10.1842 8.70801 9.38663 8.94993 8.70827 9.4032C8.02992 9.85646 7.50121 10.5007 7.189 11.2544C6.87679 12.0082 6.7951 12.8376 6.95426 13.6378C7.11343 14.4379 7.50629 15.1729 8.08319 15.7498C8.66008 16.3267 9.39508 16.7196 10.1953 16.8787C10.9954 17.0379 11.8248 16.9562 12.5786 16.644C13.3323 16.3318 13.9766 15.8031 14.4298 15.1247C14.8831 14.4464 15.125 13.6489 15.125 12.833C15.1238 11.7394 14.6888 10.6909 13.9154 9.91757C13.1421 9.14426 12.0936 8.70926 11 8.70801ZM11 16.0414C10.3655 16.0414 9.74515 15.8532 9.21754 15.5007C8.68993 15.1481 8.27871 14.647 8.03588 14.0608C7.79304 13.4745 7.72951 12.8294 7.8533 12.2071C7.9771 11.5847 8.28266 11.0131 8.73136 10.5644C9.18005 10.1157 9.75173 9.8101 10.3741 9.68631C10.9964 9.56251 11.6415 9.62605 12.2278 9.86888C12.814 10.1117 13.3151 10.5229 13.6676 11.0505C14.0202 11.5782 14.2083 12.1985 14.2083 12.833C14.2074 13.6836 13.869 14.4991 13.2676 15.1006C12.6661 15.702 11.8506 16.0404 11 16.0413V16.0414Z" fill="white"/>
<path d="M6.41406 15.5837H4.52279C4.44027 15.2669 4.27472 14.9778 4.0432 14.7463C3.81169 14.5148 3.5226 14.3492 3.20576 14.2667V11.4007C3.52259 11.3181 3.81167 11.1526 4.04318 10.9211C4.27469 10.6896 4.44025 10.4005 4.52279 10.0836H6.41411C6.53489 10.0825 6.65033 10.0337 6.73533 9.94785C6.82033 9.86202 6.86802 9.74611 6.86802 9.62532C6.86802 9.50453 6.82033 9.38862 6.73533 9.30279C6.65033 9.21696 6.53489 9.16816 6.41411 9.16699H4.12241C4.06222 9.16699 4.00261 9.17885 3.947 9.20189C3.89139 9.22492 3.84086 9.25869 3.79829 9.30125C3.75573 9.34382 3.72197 9.39435 3.69894 9.44997C3.67591 9.50558 3.66406 9.56519 3.66406 9.62538C3.6638 9.86841 3.56714 10.1014 3.39529 10.2733C3.22344 10.4451 2.99044 10.5418 2.74741 10.542C2.62585 10.542 2.50927 10.5903 2.42331 10.6763C2.33735 10.7622 2.28906 10.8788 2.28906 11.0004V14.667C2.28906 14.7272 2.30092 14.7868 2.32395 14.8424C2.34699 14.898 2.38075 14.9486 2.42331 14.9911C2.46587 15.0337 2.5164 15.0675 2.57201 15.0905C2.62762 15.1135 2.68722 15.1254 2.74741 15.1254C2.99045 15.1256 3.22346 15.2223 3.39532 15.3941C3.56717 15.566 3.66382 15.799 3.66406 16.042C3.66406 16.1636 3.71235 16.2802 3.79831 16.3661C3.88427 16.4521 4.00085 16.5004 4.12241 16.5004H6.41406C6.47462 16.501 6.5347 16.4895 6.59082 16.4668C6.64694 16.444 6.698 16.4103 6.74103 16.3677C6.78406 16.3251 6.81822 16.2744 6.84153 16.2185C6.86484 16.1626 6.87685 16.1026 6.87685 16.0421C6.87685 15.9815 6.86484 15.9215 6.84153 15.8656C6.81822 15.8097 6.78406 15.759 6.74103 15.7164C6.698 15.6738 6.64694 15.6401 6.59082 15.6173C6.5347 15.5946 6.47462 15.5831 6.41406 15.5837Z" fill="white"/>
<path d="M19.2466 10.542C19.0036 10.5418 18.7706 10.4451 18.5987 10.2732C18.4269 10.1014 18.3302 9.86839 18.33 9.62536C18.33 9.5038 18.2817 9.38722 18.1957 9.30126C18.1098 9.2153 17.9932 9.16701 17.8716 9.16701H15.58C15.5194 9.16643 15.4593 9.17785 15.4032 9.20062C15.3471 9.22339 15.296 9.25706 15.253 9.29967C15.21 9.34229 15.1758 9.39302 15.1525 9.44891C15.1292 9.50481 15.1172 9.56478 15.1172 9.62534C15.1172 9.6859 15.1292 9.74587 15.1525 9.80177C15.1758 9.85766 15.21 9.90839 15.253 9.95101C15.296 9.99362 15.3471 10.0273 15.4032 10.0501C15.4593 10.0728 15.5194 10.0843 15.58 10.0837H17.4713C17.5538 10.4005 17.7194 10.6896 17.9509 10.9211C18.1824 11.1526 18.4715 11.3182 18.7883 11.4007V14.2667C18.4715 14.3492 18.1824 14.5148 17.9509 14.7463C17.7194 14.9778 17.5538 15.2669 17.4713 15.5838H15.58C15.5194 15.5832 15.4593 15.5946 15.4032 15.6174C15.3471 15.6401 15.296 15.6738 15.253 15.7164C15.21 15.759 15.1758 15.8098 15.1525 15.8657C15.1292 15.9216 15.1172 15.9815 15.1172 16.0421C15.1172 16.1026 15.1292 16.1626 15.1525 16.2185C15.1758 16.2744 15.21 16.3251 15.253 16.3677C15.296 16.4104 15.3471 16.444 15.4032 16.4668C15.4593 16.4896 15.5194 16.501 15.58 16.5004H17.8716C17.9932 16.5004 18.1098 16.4521 18.1957 16.3662C18.2817 16.2802 18.33 16.1636 18.33 16.0421C18.3302 15.799 18.4268 15.566 18.5987 15.3941C18.7706 15.2223 19.0036 15.1256 19.2466 15.1254C19.3682 15.1254 19.4848 15.0771 19.5707 14.9911C19.6567 14.9052 19.705 14.7886 19.705 14.667V11.0004C19.705 10.8788 19.6567 10.7622 19.5707 10.6763C19.4848 10.5903 19.3682 10.542 19.2466 10.542Z" fill="white"/>
</svg>
