<svg width="22" height="21" viewBox="0 0 22 21" fill="none" xmlns="http://www.w3.org/2000/svg">
<path d="M12.4197 13.6572C13.0164 13.2189 13.4062 12.5142 13.4062 11.7188C13.4062 10.3922 12.3269 9.3125 11 9.3125C9.67313 9.3125 8.59375 10.3922 8.59375 11.7188C8.59375 11.7198 8.59375 11.7205 8.59375 11.7215V11.7222C8.59478 12.5162 8.98425 13.2196 9.57997 13.6572C8.59719 14.0769 7.90625 15.0528 7.90625 16.1875V19.9688C7.90625 20.1588 8.06025 20.3125 8.25 20.3125H13.75C13.9398 20.3125 14.0938 20.1588 14.0938 19.9688V16.1875C14.0938 15.0528 13.4028 14.0769 12.4197 13.6572ZM11 14.5499L11.6524 15.8548L11 17.3772L10.3476 15.8548L11 14.5499ZM11 10C11.7037 10 12.3083 10.4259 12.5737 11.0326C12.0832 10.8071 11.5507 10.6875 11 10.6875C10.4493 10.6875 9.91684 10.8071 9.42631 11.0326C9.69169 10.4259 10.2963 10 11 10ZM9.29844 11.8875C9.80547 11.5527 10.3892 11.375 11 11.375C11.6108 11.375 12.1945 11.5527 12.7016 11.8875C12.6156 12.7552 11.89 13.4375 11 13.4375C10.11 13.4375 9.38437 12.7552 9.29844 11.8875ZM13.4062 19.625H8.59375V16.1875C8.59375 15.1239 9.40294 14.2463 10.438 14.1367L9.66144 15.6897C9.61641 15.7802 9.61297 15.886 9.65319 15.9788L10.6844 18.3851C10.7381 18.5119 10.8625 18.5938 11 18.5938C11.1375 18.5938 11.2619 18.5119 11.3159 18.3854L12.3472 15.9792C12.387 15.8864 12.3839 15.7805 12.3389 15.6901L11.5624 14.137C12.5971 14.2463 13.4062 15.1239 13.4062 16.1875V19.625Z" fill="white"/>
<path d="M4.75681 12.9587C5.21056 12.5798 5.5 12.0109 5.5 11.375C5.5 10.2375 4.57497 9.3125 3.4375 9.3125C2.30003 9.3125 1.375 10.2375 1.375 11.375C1.375 12.0109 1.66444 12.5798 2.11819 12.9587C1.27669 13.3337 0.6875 14.1769 0.6875 15.1562V18.5938C0.6875 18.7838 0.8415 18.9375 1.03125 18.9375H5.84375C6.0335 18.9375 6.1875 18.7838 6.1875 18.5938V15.1562C6.1875 14.1769 5.59831 13.3337 4.75681 12.9587ZM3.4375 14.0191L3.75925 14.8232L3.4375 15.7881L3.11575 14.8232L3.4375 14.0191ZM3.4375 12.75C2.71081 12.75 2.12025 12.1818 2.07178 11.4671C2.47672 11.1863 2.94353 11.0312 3.4375 11.0312C3.93147 11.0312 4.39828 11.1863 4.80322 11.4671C4.75475 12.1818 4.16419 12.75 3.4375 12.75ZM3.4375 10C3.88128 10 4.27281 10.2148 4.52409 10.5424C4.18 10.4125 3.81459 10.3438 3.4375 10.3438C3.06041 10.3438 2.695 10.4125 2.35091 10.5424C2.60219 10.2148 2.99372 10 3.4375 10ZM5.5 18.25H1.375V15.1562C1.375 14.267 2.05631 13.542 2.92291 13.4547L2.431 14.685C2.40109 14.7606 2.39834 14.8441 2.42412 14.9215L3.11162 16.984C3.15838 17.1242 3.28934 17.2188 3.4375 17.2188C3.58566 17.2188 3.71663 17.1242 3.76372 16.9836L4.45122 14.9211C4.477 14.8438 4.47425 14.7602 4.44434 14.6846L3.95244 13.4543C4.81869 13.542 5.5 14.267 5.5 15.1562V18.25Z" fill="white"/>
<path d="M19.8818 12.9587C20.3356 12.5798 20.625 12.0109 20.625 11.375C20.625 10.2375 19.7 9.3125 18.5625 9.3125C17.425 9.3125 16.5 10.2375 16.5 11.375C16.5 12.0109 16.7894 12.5798 17.2432 12.9587C16.4017 13.3337 15.8125 14.1769 15.8125 15.1562V18.5938C15.8125 18.7838 15.9665 18.9375 16.1562 18.9375H20.9688C21.1585 18.9375 21.3125 18.7838 21.3125 18.5938V15.1562C21.3125 14.1769 20.7233 13.3337 19.8818 12.9587ZM18.5625 14.0191L18.8843 14.8232L18.5625 15.7881L18.2407 14.8232L18.5625 14.0191ZM18.5625 12.75C17.8358 12.75 17.2453 12.1818 17.1968 11.4671C17.6017 11.1863 18.0685 11.0312 18.5625 11.0312C19.0565 11.0312 19.5233 11.1863 19.9282 11.4671C19.8797 12.1818 19.2892 12.75 18.5625 12.75ZM18.5625 10C19.0063 10 19.3978 10.2148 19.6491 10.5424C19.305 10.4125 18.9396 10.3438 18.5625 10.3438C18.1854 10.3438 17.82 10.4125 17.4759 10.5424C17.7272 10.2148 18.1187 10 18.5625 10ZM20.625 18.25H16.5V15.1562C16.5 14.267 17.1813 13.542 18.0479 13.4547L17.556 14.685C17.5261 14.7606 17.5233 14.8441 17.5491 14.9215L18.2366 16.984C18.2834 17.1242 18.4143 17.2188 18.5625 17.2188C18.7107 17.2188 18.8416 17.1242 18.8887 16.9836L19.5762 14.9211C19.602 14.8438 19.5993 14.7602 19.5693 14.6846L19.0774 13.4543C19.9437 13.542 20.625 14.267 20.625 15.1562V18.25Z" fill="white"/>
<path d="M8.26778 3.13531C8.22688 3.25734 8.25781 3.39209 8.34753 3.48456L9.42931 4.5935L9.17322 6.16341C9.15191 6.29334 9.20691 6.42397 9.3145 6.49994C9.42244 6.57591 9.56406 6.58347 9.67888 6.51987L10.9999 5.78941L12.3206 6.51953C12.3728 6.54841 12.4299 6.5625 12.487 6.5625C12.5564 6.5625 12.6258 6.54119 12.685 6.49959C12.7926 6.42362 12.8476 6.293 12.8263 6.16306L12.5702 4.59316L13.6519 3.48422C13.742 3.39175 13.7729 3.25734 13.7317 3.13497C13.6904 3.01259 13.5849 2.92391 13.4577 2.90431L11.9768 2.67812L11.311 1.26016C11.2546 1.1395 11.1333 1.0625 10.9999 1.0625C10.8665 1.0625 10.7452 1.1395 10.6888 1.26016L10.023 2.67812L8.54175 2.90466C8.41456 2.92425 8.30869 3.01328 8.26778 3.13531ZM10.3083 3.33022C10.4217 3.31303 10.519 3.24016 10.5675 3.13669L10.9999 2.21544L11.4323 3.13669C11.4812 3.2405 11.5781 3.31337 11.6915 3.33022L12.6929 3.48319L11.9569 4.23738C11.8806 4.31541 11.8462 4.42506 11.8638 4.53266L12.0339 5.57525L11.1663 5.09538C11.1147 5.06684 11.0573 5.05241 10.9999 5.05241C10.9425 5.05241 10.8854 5.06684 10.8335 5.09538L9.96591 5.57525L10.1361 4.53266C10.1536 4.42506 10.1192 4.31506 10.0429 4.23738L9.30694 3.48319L10.3083 3.33022Z" fill="white"/>
<path d="M5.13794 5.78494C5.09703 5.66291 4.99116 5.57387 4.86397 5.55428L4.09534 5.43672L3.7485 4.69766C3.69178 4.57734 3.57044 4.5 3.43706 4.5C3.30369 4.5 3.18234 4.57734 3.12597 4.69766L2.77913 5.43672L2.0105 5.55428C1.88297 5.57387 1.77744 5.66256 1.73653 5.78494C1.69563 5.90731 1.72656 6.04172 1.81628 6.13419L2.38244 6.71444L2.24803 7.53806C2.22672 7.668 2.28172 7.79862 2.38931 7.87459C2.49725 7.95056 2.63853 7.95813 2.75369 7.89453L3.43706 7.51675L4.12044 7.89453C4.17269 7.92341 4.22975 7.9375 4.28681 7.9375C4.35625 7.9375 4.42569 7.91619 4.48481 7.87459C4.59241 7.79862 4.64741 7.668 4.62609 7.53806L4.49169 6.71444L5.05784 6.13419C5.14825 6.04172 5.17884 5.90731 5.13794 5.78494ZM3.87844 6.35866C3.80213 6.43703 3.76775 6.54634 3.78528 6.65394L3.83375 6.95025L3.60344 6.82306C3.55153 6.79453 3.49447 6.78009 3.43706 6.78009C3.37966 6.78009 3.32259 6.79453 3.27069 6.82306L3.04038 6.95025L3.08884 6.65394C3.10638 6.54634 3.072 6.43669 2.99569 6.35866L2.77534 6.13316L3.06409 6.08881C3.17753 6.07162 3.27481 5.99875 3.32328 5.89528L3.43706 5.65294L3.55084 5.89494C3.59966 5.99875 3.69694 6.07163 3.81003 6.08847L4.09878 6.13281L3.87844 6.35866Z" fill="white"/>
<path d="M20.2629 5.78494C20.222 5.66291 20.1162 5.57387 19.989 5.55428L19.2203 5.43672L18.8735 4.69766C18.8168 4.57734 18.6954 4.5 18.5621 4.5C18.4287 4.5 18.3073 4.57734 18.251 4.69766L17.9041 5.43672L17.1355 5.55428C17.008 5.57387 16.9024 5.66256 16.8615 5.78494C16.8206 5.90731 16.8516 6.04172 16.9413 6.13419L17.5074 6.71444L17.373 7.53806C17.3517 7.668 17.4067 7.79862 17.5143 7.87459C17.6223 7.95056 17.7632 7.95813 17.8787 7.89453L18.5621 7.51675L19.2454 7.89453C19.2977 7.92341 19.3548 7.9375 19.4118 7.9375C19.4813 7.9375 19.5507 7.91619 19.6098 7.87459C19.7174 7.79862 19.7724 7.668 19.7511 7.53806L19.6167 6.71444L20.1828 6.13419C20.2733 6.04172 20.3038 5.90731 20.2629 5.78494ZM19.0034 6.35866C18.9271 6.43703 18.8928 6.54634 18.9103 6.65394L18.9588 6.95025L18.7284 6.82306C18.6765 6.79453 18.6195 6.78009 18.5621 6.78009C18.5047 6.78009 18.4476 6.79453 18.3957 6.82306L18.1654 6.95025L18.2138 6.65394C18.2314 6.54634 18.197 6.43669 18.1207 6.35866L17.9003 6.13316L18.1891 6.08881C18.3025 6.07162 18.3998 5.99875 18.4483 5.89528L18.5621 5.65294L18.6758 5.89494C18.7247 5.99875 18.8219 6.07163 18.935 6.08847L19.2238 6.13281L19.0034 6.35866Z" fill="white"/>
<path d="M7.13281 1.92105L7.72784 2.26548C7.83303 2.08364 7.95403 1.9097 8.08706 1.74883L7.55769 1.31055C7.40025 1.50064 7.25725 1.7062 7.13281 1.92105Z" fill="white"/>
<path d="M6.60938 3.3111L7.2845 3.4407C7.32403 3.23479 7.38109 3.03129 7.45431 2.83501L6.81012 2.59473C6.7235 2.82676 6.65613 3.06773 6.60938 3.3111Z" fill="white"/>
<path d="M8.49219 7.85728C8.69741 7.9965 8.91569 8.11956 9.14084 8.22234L9.4265 7.59741C9.23606 7.51044 9.05181 7.40628 8.87856 7.28906L8.49219 7.85728Z" fill="white"/>
<path d="M8.07031 0.778469L8.52062 1.29822C8.67909 1.16106 8.84994 1.03559 9.02903 0.926625L8.6705 0.339844C8.45909 0.46875 8.25731 0.616563 8.07031 0.778469Z" fill="white"/>
<path d="M12.7627 8.26533C12.9899 8.16839 13.211 8.05083 13.4196 7.91608L13.0473 7.33789C12.8707 7.45167 12.684 7.55102 12.4922 7.63317L12.7627 8.26533Z" fill="white"/>
<path d="M11.3222 8.61372C11.5694 8.59619 11.8166 8.55803 12.0572 8.49994L11.8956 7.83203C11.6925 7.88119 11.4831 7.91316 11.2734 7.92828L11.3222 8.61372Z" fill="white"/>
<path d="M10.5759 8.60466L10.6406 7.9206C10.4319 7.90066 10.2236 7.86354 10.0211 7.80957L9.84375 8.4737C10.083 8.53763 10.3291 8.58163 10.5759 8.60466Z" fill="white"/>
<path d="M14.3203 5.96802L14.9236 6.29767C15.0429 6.07939 15.1443 5.85045 15.2247 5.61739L14.575 5.39258C14.507 5.58989 14.421 5.78342 14.3203 5.96802Z" fill="white"/>
<path d="M14.7266 4.78394L15.4048 4.89669C15.445 4.65366 15.4656 4.40478 15.4656 4.15625H14.7781C14.7781 4.36662 14.7606 4.57803 14.7266 4.78394Z" fill="white"/>
<path d="M8.39022 6.89281C8.23863 6.74809 8.09769 6.58963 7.97222 6.42188L7.42188 6.83403C7.57003 7.03203 7.73606 7.21903 7.9155 7.39022L8.39022 6.89281Z" fill="white"/>
<path d="M7.39703 5.30762L6.74219 5.51696C6.81747 5.75243 6.91338 5.98343 7.02716 6.20412L7.638 5.88855C7.54141 5.7019 7.46062 5.50665 7.39703 5.30762Z" fill="white"/>
<path d="M13.5469 16.9548L14.0092 17.4635C14.1924 17.2971 14.3629 17.1136 14.5162 16.919L13.9759 16.4941C13.8463 16.6588 13.7019 16.8138 13.5469 16.9548Z" fill="white"/>
<path d="M7.21875 14.1561L7.21978 14.0664L6.53262 14.0488L6.53125 14.1561C6.53125 14.3689 6.54638 14.5827 6.57628 14.7917L7.25656 14.6944C7.23147 14.5177 7.21875 14.3362 7.21875 14.1561Z" fill="white"/>
<path d="M11.4511 10.4012L11.5309 9.71848C11.2854 9.68961 11.0348 9.68067 10.7891 9.6927L10.821 10.3795C11.0293 10.3695 11.2428 10.3771 11.4511 10.4012Z" fill="white"/>
<path d="M13.1953 11.0762C13.3662 11.1979 13.5277 11.3351 13.6755 11.4832L14.1619 10.9972C13.987 10.8222 13.7962 10.6606 13.5944 10.5166L13.1953 11.0762Z" fill="white"/>
<path d="M12.256 9.86719L12.0625 10.5272C12.2632 10.586 12.4609 10.6626 12.6496 10.7541L12.9501 10.1357C12.727 10.0274 12.4936 9.93731 12.256 9.86719Z" fill="white"/>
<path d="M10.0475 9.78809C9.80481 9.84068 9.56522 9.9139 9.33594 10.0064L9.59203 10.644C9.78556 10.5663 9.98803 10.5045 10.1932 10.4601L10.0475 9.78809Z" fill="white"/>
<path d="M15.4413 13.6262C15.4124 13.3804 15.3623 13.135 15.2925 12.8975L14.6328 13.0906C14.6916 13.2917 14.7339 13.499 14.7583 13.7066L15.4413 13.6262Z" fill="white"/>
<path d="M14.0781 11.9639C14.1998 12.1344 14.3077 12.3159 14.3992 12.5043L15.0176 12.2035C14.9093 11.9811 14.7814 11.7662 14.6377 11.5645L14.0781 11.9639Z" fill="white"/>
</svg>
