<svg width="22" height="22" viewBox="0 0 22 22" fill="none" xmlns="http://www.w3.org/2000/svg">
<g clip-path="url(#clip0_3351_2029)">
<path d="M20.625 20.625V3.09375C20.625 3.00258 20.5888 2.91515 20.5243 2.85068C20.4599 2.78622 20.3724 2.75 20.2812 2.75H13.0625V1.03125C13.0625 0.940083 13.0263 0.85265 12.9618 0.788184C12.8974 0.723718 12.8099 0.6875 12.7188 0.6875H3.09375C3.00258 0.6875 2.91515 0.723718 2.85068 0.788184C2.78622 0.85265 2.75 0.940083 2.75 1.03125V8.59375H3.4375V1.375H12.375V8.9375H13.0625V3.4375H19.9375V20.625H13.0625V18.9249L19.3587 16.8261C19.4439 16.7977 19.5146 16.7371 19.5556 16.6573C19.5967 16.5775 19.605 16.4847 19.5785 16.3989L18.2035 11.9301C18.1769 11.8436 18.1173 11.7711 18.0374 11.7283C17.9576 11.6855 17.8642 11.6759 17.7774 11.7017L16.8362 11.9805L12.538 9.66608C12.4577 9.62285 12.3636 9.61331 12.2762 9.63952C12.1889 9.66569 12.1156 9.7255 12.0723 9.80577L11.965 10.005L7.425 6.6C7.36549 6.55536 7.29313 6.53125 7.21875 6.53125C7.14437 6.53125 7.07201 6.55536 7.0125 6.6L1.51251 10.725C1.46981 10.757 1.43516 10.7985 1.4113 10.8463C1.38743 10.894 1.375 10.9466 1.375 11V20.625H0.6875V21.3125H21.3125V20.625H20.625ZM12.375 20.625H10.3125V19.8415L12.375 19.154V20.625ZM18.8227 16.2801L10.2007 19.1541L9.01781 15.0141L17.6465 12.4575L18.8227 16.2801ZM12.5147 10.4344L15.9008 12.2577L10.7038 13.7976L12.5147 10.4344ZM2.0625 11.1719L7.21875 7.30469L11.6354 10.6172L9.77466 14.0729L8.49612 14.4517C8.40924 14.4774 8.33607 14.5364 8.29245 14.6158C8.24884 14.6952 8.23831 14.7886 8.26323 14.8757L8.7273 16.5H8.25V17.1875H8.92375L9.625 19.6419V20.625H7.5625V13.4062H9.28125V12.7188H4.46875C4.37757 12.7188 4.29015 12.755 4.22568 12.8194C4.16122 12.8839 4.125 12.9713 4.125 13.0625V20.625H2.0625V11.1719ZM6.875 20.625H4.8125V13.4062H6.875V20.625Z" fill="white"/>
<path d="M5.84375 11.6875H8.59375C8.68493 11.6875 8.77237 11.6513 8.83682 11.5868C8.90128 11.5224 8.9375 11.4349 8.9375 11.3438V9.96875C8.9375 9.91538 8.92508 9.86275 8.90119 9.81501C8.87734 9.76727 8.84267 9.72576 8.8 9.69375L7.425 8.6625C7.36549 8.61786 7.29313 8.59375 7.21875 8.59375C7.14437 8.59375 7.07201 8.61786 7.0125 8.6625L5.6375 9.69375C5.59483 9.72576 5.56016 9.76727 5.53631 9.81501C5.51242 9.86275 5.5 9.91538 5.5 9.96875V11.3438C5.5 11.4349 5.53622 11.5224 5.60068 11.5868C5.66513 11.6513 5.75257 11.6875 5.84375 11.6875ZM6.1875 10.1406L7.21875 9.36719L8.25 10.1406V11H6.1875V10.1406Z" fill="white"/>
<path d="M6.1875 16.5H5.5V17.1875H6.1875V16.5Z" fill="white"/>
<path d="M11.4615 17.1667L14.7344 15.9765C14.9418 16.2382 15.2374 16.4153 15.566 16.4747C15.8946 16.5341 16.2335 16.4716 16.5193 16.2991C16.8052 16.1265 17.0183 15.8556 17.1187 15.5372C17.2192 15.2188 17.2002 14.8747 17.0652 14.5694C16.9301 14.264 16.6885 14.0183 16.3853 13.8784C16.0822 13.7384 15.7385 13.7137 15.4185 13.809C15.0985 13.9043 14.8242 14.1129 14.647 14.3959C14.4698 14.6789 14.4018 15.0168 14.4558 15.3462L13.9089 15.5451L13.5034 14.3287L12.8513 14.5461L13.2626 15.7802L12.5728 16.031L12.3307 15.353L11.6832 15.5842L11.9267 16.2659L11.2266 16.5205L11.4615 17.1667ZM15.8127 14.4374C15.9487 14.4374 16.0816 14.4777 16.1947 14.5532C16.3078 14.6287 16.3959 14.7361 16.448 14.8618C16.5 14.9874 16.5136 15.1256 16.4871 15.259C16.4605 15.3923 16.3951 15.5148 16.2989 15.611C16.2028 15.7071 16.0803 15.7726 15.9469 15.7991C15.8135 15.8257 15.6753 15.8121 15.5497 15.76C15.4241 15.708 15.3167 15.6199 15.2411 15.5068C15.1656 15.3938 15.1252 15.2608 15.1252 15.1249C15.1255 14.9426 15.198 14.7678 15.3269 14.6389C15.4558 14.5101 15.6305 14.4376 15.8127 14.4374Z" fill="white"/>
<path d="M5.84375 2.40625H4.46875V3.09375H5.84375V2.40625Z" fill="white"/>
<path d="M8.59375 2.40625H7.21875V3.09375H8.59375V2.40625Z" fill="white"/>
<path d="M11.3438 2.40625H9.96875V3.09375H11.3438V2.40625Z" fill="white"/>
<path d="M5.84375 4.125H4.46875V4.8125H5.84375V4.125Z" fill="white"/>
<path d="M8.59375 4.125H7.21875V4.8125H8.59375V4.125Z" fill="white"/>
<path d="M11.3438 4.125H9.96875V4.8125H11.3438V4.125Z" fill="white"/>
<path d="M5.84375 5.84375H4.46875V6.53125H5.84375V5.84375Z" fill="white"/>
<path d="M8.59375 5.84375H7.90625V6.53125H8.59375V5.84375Z" fill="white"/>
<path d="M11.3438 5.84375H9.96875V6.53125H11.3438V5.84375Z" fill="white"/>
<path d="M11.3438 7.5625H10.6562V8.25H11.3438V7.5625Z" fill="white"/>
<path d="M15.125 4.46875H13.75V5.15625H15.125V4.46875Z" fill="white"/>
<path d="M17.1875 4.46875H15.8125V5.15625H17.1875V4.46875Z" fill="white"/>
<path d="M19.25 4.46875H17.875V5.15625H19.25V4.46875Z" fill="white"/>
<path d="M15.125 6.1875H13.75V6.875H15.125V6.1875Z" fill="white"/>
<path d="M17.1875 6.1875H15.8125V6.875H17.1875V6.1875Z" fill="white"/>
<path d="M19.25 6.1875H17.875V6.875H19.25V6.1875Z" fill="white"/>
<path d="M15.125 7.90625H13.75V8.59375H15.125V7.90625Z" fill="white"/>
<path d="M17.1875 7.90625H15.8125V8.59375H17.1875V7.90625Z" fill="white"/>
<path d="M19.25 7.90625H17.875V8.59375H19.25V7.90625Z" fill="white"/>
<path d="M15.125 9.625H14.4375V10.3125H15.125V9.625Z" fill="white"/>
<path d="M17.1875 9.625H15.8125V10.3125H17.1875V9.625Z" fill="white"/>
<path d="M19.25 9.625H17.875V10.3125H19.25V9.625Z" fill="white"/>
<path d="M19.25 17.5312H17.875V18.2188H19.25V17.5312Z" fill="white"/>
<path d="M15.125 19.25H13.75V19.9375H15.125V19.25Z" fill="white"/>
<path d="M17.1875 19.25H15.8125V19.9375H17.1875V19.25Z" fill="white"/>
<path d="M19.25 19.25H17.875V19.9375H19.25V19.25Z" fill="white"/>
</g>
<defs>
<clipPath id="clip0_3351_2029">
<rect width="22" height="22" fill="white"/>
</clipPath>
</defs>
</svg>
