<svg width="22" height="22" viewBox="0 0 22 22" fill="none" xmlns="http://www.w3.org/2000/svg">
<path d="M11 13.75C12.5188 13.75 13.75 12.5188 13.75 11C13.75 9.48122 12.5188 8.25 11 8.25C9.48122 8.25 8.25 9.48122 8.25 11C8.25 12.5188 9.48122 13.75 11 13.75Z" stroke="white" stroke-miterlimit="10" stroke-linecap="round" stroke-linejoin="round"/>
<path d="M19.0861 7.12663L18.3986 5.93587C18.0191 5.27794 17.1782 5.05312 16.5203 5.43262L16.1587 5.64163C14.7837 6.435 13.0649 5.44294 13.0649 3.8555V3.4375C13.0649 2.67781 12.4496 2.0625 11.6899 2.0625H10.3149C9.55524 2.0625 8.93993 2.67781 8.93993 3.4375V3.8555C8.93993 5.44294 7.22118 6.43569 5.84618 5.64163L5.48455 5.43262C4.82662 5.05312 3.9858 5.27794 3.6063 5.93587L2.9188 7.12663C2.5393 7.78456 2.76412 8.62537 3.42205 9.00487L3.78368 9.21388C5.15868 10.0079 5.15868 11.9921 3.78368 12.7861L3.42205 12.9951C2.76412 13.3746 2.5393 14.2154 2.9188 14.8734L3.6063 16.0641C3.9858 16.7221 4.82662 16.9469 5.48455 16.5674L5.84618 16.3584C7.22118 15.5643 8.93993 16.5571 8.93993 18.1445V18.5625C8.93993 19.3222 9.55524 19.9375 10.3149 19.9375H11.6899C12.4496 19.9375 13.0649 19.3222 13.0649 18.5625V18.1445C13.0649 16.5571 14.7837 15.5643 16.1587 16.3584L16.5203 16.5674C17.1782 16.9469 18.0191 16.7221 18.3986 16.0641L19.0861 14.8734C19.4656 14.2154 19.2407 13.3746 18.5828 12.9951L18.2212 12.7861C16.8462 11.9921 16.8462 10.0079 18.2212 9.21388L18.5828 9.00487C19.2407 8.62537 19.4662 7.78456 19.0861 7.12663Z" stroke="white" stroke-miterlimit="10" stroke-linecap="round" stroke-linejoin="round"/>
</svg>
