<svg width="32" height="32" viewBox="0 0 32 32" fill="none" xmlns="http://www.w3.org/2000/svg">
<path d="M16.0015 1.51367C13.1365 1.51368 10.3358 2.36326 7.95358 3.955C5.57139 5.54673 3.7147 7.80912 2.6183 10.4561C1.5219 13.103 1.23503 16.0157 1.79398 18.8256C2.35292 21.6356 3.73257 24.2168 5.75847 26.2427C7.78436 28.2685 10.3655 29.6482 13.1755 30.2071C15.9855 30.7661 18.8981 30.4792 21.5451 29.3828C24.192 28.2864 26.4544 26.4297 28.0461 24.0475C29.6379 21.6653 30.4874 18.8646 30.4874 15.9996C30.4831 12.159 28.9555 8.47696 26.2398 5.76127C23.5241 3.04558 19.8421 1.51801 16.0015 1.51367ZM16.0015 27.6252C13.7022 27.6252 11.4545 26.9434 9.54264 25.666C7.63081 24.3885 6.14072 22.5728 5.2608 20.4485C4.38088 18.3242 4.15065 15.9867 4.59923 13.7315C5.04781 11.4763 6.15505 9.40485 7.78093 7.77897C9.40681 6.15309 11.4783 5.04585 13.7335 4.59727C15.9886 4.14869 18.3262 4.37892 20.4505 5.25884C22.5748 6.13876 24.3905 7.62885 25.6679 9.54068C26.9454 11.4525 27.6272 13.7002 27.6272 15.9996C27.6237 19.0818 26.3978 22.0368 24.2183 24.2163C22.0388 26.3958 19.0838 27.6218 16.0015 27.6252Z" fill="#2D3E50"/>
<path d="M15.374 11.7529C16.4435 11.7529 17.3105 10.8859 17.3105 9.81638C17.3105 8.74688 16.4435 7.87988 15.374 7.87988C14.3045 7.87988 13.4375 8.74688 13.4375 9.81638C13.4375 10.8859 14.3045 11.7529 15.374 11.7529Z" fill="#2E79BD"/>
<path d="M14.1061 13.4881C13.8397 13.5354 13.5986 13.6749 13.4248 13.8822C13.2511 14.0895 13.1559 14.3514 13.1559 14.6219C13.1559 14.773 13.1856 14.9227 13.2435 15.0624C13.3013 15.2021 13.3861 15.329 13.493 15.4359C13.5999 15.5428 13.7268 15.6276 13.8665 15.6855C14.0062 15.7433 14.1559 15.7731 14.3071 15.773H14.4212V22.1497H13.8053C13.5441 22.1497 13.2935 22.2535 13.1088 22.4382C12.9241 22.6229 12.8203 22.8735 12.8203 23.1347C12.8203 23.396 12.9241 23.6465 13.1088 23.8312C13.2935 24.016 13.5441 24.1197 13.8053 24.1197H18.1985C18.4598 24.1197 18.7103 24.016 18.895 23.8312C19.0798 23.6465 19.1836 23.396 19.1836 23.1347C19.1836 22.8735 19.0798 22.6229 18.895 22.4382C18.7103 22.2535 18.4598 22.1497 18.1985 22.1497H17.5894V14.0096C17.5894 13.8627 17.5568 13.7176 17.4941 13.5848C17.4313 13.452 17.3398 13.3348 17.2263 13.2415C17.1128 13.1483 16.9801 13.0814 16.8376 13.0456C16.6951 13.0098 16.5465 13.006 16.4024 13.0346C15.4085 13.2313 14.1455 13.4812 14.1061 13.4881Z" fill="#2E79BD"/>
</svg>
